<?xml version="1.0" encoding="utf-8"?>
<!-- Generator: Adobe Illustrator 16.0.0, SVG Export Plug-In . SVG Version: 6.00 Build 0)  -->
<!DOCTYPE svg PUBLIC "-//W3C//DTD SVG 1.1//EN" "http://www.w3.org/Graphics/SVG/1.1/DTD/svg11.dtd">
<svg version="1.1" id="Layer_1" xmlns="http://www.w3.org/2000/svg" xmlns:xlink="http://www.w3.org/1999/xlink" x="0px" y="0px"
	 width="40px" height="40px" viewBox="0 0 40 40" enable-background="new 0 0 40 40" xml:space="preserve">
<path fill="#FFFFFF" d="M23.156,14.613v3.241c-0.078,0.094-0.171,0.171-0.266,0.231c-0.104,0.061-0.18,0.094-0.248,0.094
	c-0.077,0-0.138-0.025-0.172-0.068c-0.043-0.052-0.061-0.12-0.061-0.223v-3.275h-0.875v3.566c0,0.258,0.053,0.446,0.155,0.574
	c0.103,0.129,0.258,0.189,0.454,0.189c0.172,0,0.334-0.043,0.514-0.128c0.172-0.094,0.336-0.223,0.498-0.403v0.471h0.875v-4.27
	H23.156z M20.49,14.819c-0.232-0.214-0.531-0.317-0.891-0.317c-0.396,0-0.713,0.103-0.953,0.3c-0.231,0.197-0.35,0.454-0.35,0.789
	v2.212c0,0.369,0.118,0.651,0.342,0.866c0.23,0.214,0.54,0.325,0.917,0.325c0.394,0,0.712-0.103,0.935-0.317
	c0.231-0.206,0.343-0.488,0.343-0.857v-2.203C20.833,15.291,20.713,15.025,20.49,14.819z M19.941,17.888
	c0,0.111-0.034,0.197-0.104,0.266c-0.068,0.069-0.162,0.103-0.282,0.103c-0.111,0-0.205-0.034-0.267-0.103
	c-0.059-0.06-0.094-0.154-0.094-0.266v-2.332c0-0.094,0.035-0.171,0.104-0.222c0.061-0.061,0.154-0.086,0.257-0.086
	c0.111,0,0.206,0.025,0.282,0.086c0.069,0.051,0.104,0.128,0.104,0.222V17.888z M17.232,13.096l-0.607,2.315h-0.07l-0.634-2.315
	h-0.993l1.174,3.498v2.289h0.985v-2.4l1.14-3.386H17.232z M24.048,23.289c0.052,0.068,0.077,0.188,0.077,0.342v0.395h-0.678v-0.395
	c0-0.154,0.018-0.273,0.078-0.342c0.051-0.068,0.137-0.111,0.266-0.111C23.91,23.178,23.996,23.221,24.048,23.289z M21.355,23.271
	c-0.051-0.068-0.137-0.104-0.24-0.104c-0.051,0-0.111,0.01-0.162,0.035c-0.052,0.025-0.111,0.068-0.162,0.12v2.417
	c0.059,0.061,0.128,0.111,0.188,0.137c0.061,0.026,0.12,0.044,0.181,0.044c0.103,0,0.171-0.026,0.214-0.087
	c0.043-0.051,0.068-0.137,0.068-0.266v-2.005C21.441,23.434,21.416,23.34,21.355,23.271z M21.355,23.271
	c-0.051-0.068-0.137-0.104-0.24-0.104c-0.051,0-0.111,0.01-0.162,0.035c-0.052,0.025-0.111,0.068-0.162,0.12v2.417
	c0.059,0.061,0.128,0.111,0.188,0.137c0.061,0.026,0.12,0.044,0.181,0.044c0.103,0,0.171-0.026,0.214-0.087
	c0.043-0.051,0.068-0.137,0.068-0.266v-2.005C21.441,23.434,21.416,23.34,21.355,23.271z M25.754,20.28H13.599
	c-1.329,0-2.427,1.097-2.427,2.435v2.478c0,1.337,1.098,2.426,2.427,2.426h12.155c1.328,0,2.426-1.089,2.426-2.426v-2.478
	C28.18,21.377,27.082,20.28,25.754,20.28z M16.873,21.985h-0.908v4.492H15.09v-4.492h-0.9v-0.763h2.684V21.985z M19.427,26.478
	h-0.78v-0.429c-0.137,0.162-0.291,0.283-0.445,0.36c-0.154,0.086-0.301,0.128-0.446,0.128c-0.179,0-0.316-0.06-0.411-0.18
	c-0.086-0.111-0.129-0.283-0.129-0.514v-3.25h0.771v2.984c0,0.084,0.018,0.154,0.053,0.196c0.025,0.044,0.085,0.06,0.154,0.06
	c0.059,0,0.129-0.025,0.215-0.085c0.094-0.052,0.171-0.12,0.238-0.206v-2.949h0.78V26.478z M22.238,25.672
	c0,0.274-0.06,0.488-0.18,0.635c-0.119,0.145-0.3,0.223-0.53,0.223c-0.155,0-0.284-0.026-0.404-0.086
	c-0.12-0.061-0.23-0.146-0.333-0.266v0.3H20.01v-5.255h0.781v1.688c0.103-0.11,0.213-0.205,0.333-0.266
	c0.12-0.06,0.24-0.094,0.36-0.094c0.24,0,0.429,0.085,0.557,0.249c0.13,0.162,0.197,0.402,0.197,0.72V25.672z M24.932,24.635h-1.484
	v0.729c0,0.205,0.018,0.344,0.069,0.42c0.051,0.086,0.146,0.12,0.266,0.12c0.128,0,0.214-0.034,0.266-0.103
	c0.052-0.061,0.077-0.215,0.077-0.438v-0.18h0.807v0.196c0,0.403-0.104,0.703-0.301,0.9c-0.188,0.206-0.48,0.3-0.865,0.3
	c-0.353,0-0.627-0.103-0.824-0.316c-0.196-0.215-0.299-0.506-0.299-0.884v-1.739c0-0.335,0.111-0.609,0.334-0.823
	c0.214-0.206,0.496-0.317,0.848-0.317c0.353,0,0.627,0.104,0.814,0.301c0.189,0.197,0.293,0.471,0.293,0.84V24.635z M21.115,23.168
	c-0.051,0-0.111,0.01-0.162,0.035c-0.052,0.025-0.111,0.068-0.162,0.12v2.417c0.059,0.061,0.128,0.111,0.188,0.137
	c0.061,0.026,0.12,0.044,0.181,0.044c0.103,0,0.171-0.026,0.214-0.087c0.043-0.051,0.068-0.137,0.068-0.266v-2.005
	c0-0.13-0.025-0.224-0.086-0.292C21.305,23.203,21.219,23.168,21.115,23.168z M21.355,23.271c-0.051-0.068-0.137-0.104-0.24-0.104
	c-0.051,0-0.111,0.01-0.162,0.035c-0.052,0.025-0.111,0.068-0.162,0.12v2.417c0.059,0.061,0.128,0.111,0.188,0.137
	c0.061,0.026,0.12,0.044,0.181,0.044c0.103,0,0.171-0.026,0.214-0.087c0.043-0.051,0.068-0.137,0.068-0.266v-2.005
	C21.441,23.434,21.416,23.34,21.355,23.271z M21.355,23.271c-0.051-0.068-0.137-0.104-0.24-0.104c-0.051,0-0.111,0.01-0.162,0.035
	c-0.052,0.025-0.111,0.068-0.162,0.12v2.417c0.059,0.061,0.128,0.111,0.188,0.137c0.061,0.026,0.12,0.044,0.181,0.044
	c0.103,0,0.171-0.026,0.214-0.087c0.043-0.051,0.068-0.137,0.068-0.266v-2.005C21.441,23.434,21.416,23.34,21.355,23.271z"/>
<path fill="#517CBE" d="M19.605,37.365c9.393,0,17.008-7.614,17.008-17.008c0-9.393-7.615-17.008-17.008-17.008
	S2.597,10.965,2.597,20.357C2.597,29.751,10.212,37.365,19.605,37.365"/>
<path fill="#FFFFFF" d="M15.502,17.478h1.758v-1.709c0-0.753,0.019-1.916,0.566-2.635c0.577-0.762,1.368-1.28,2.729-1.28
	c2.218,0,3.153,0.316,3.153,0.316l-0.439,2.605c0,0-0.733-0.212-1.417-0.212c-0.685,0-1.296,0.245-1.296,0.929v1.986h2.804
	l-0.196,2.544h-2.608v8.839H17.26v-8.839h-1.758V17.478z"/>
<g>
</g>
<g>
</g>
<g>
</g>
<g>
</g>
<g>
</g>
<g>
</g>
</svg>
