<?xml version="1.0" encoding="UTF-8" standalone="no"?>
<svg
   xmlns:dc="http://purl.org/dc/elements/1.1/"
   xmlns:cc="http://creativecommons.org/ns#"
   xmlns:rdf="http://www.w3.org/1999/02/22-rdf-syntax-ns#"
   xmlns:svg="http://www.w3.org/2000/svg"
   xmlns="http://www.w3.org/2000/svg"
   viewBox="0 0 575.84998 575.84998"
   height="575.84998"
   width="575.84998"
   xml:space="preserve"
   version="1.1"
   id="svg2"><metadata
     id="metadata8"><rdf:RDF><cc:Work
         rdf:about=""><dc:format>image/svg+xml</dc:format><dc:type
           rdf:resource="http://purl.org/dc/dcmitype/StillImage" /></cc:Work></rdf:RDF></metadata><defs
     id="defs6" /><g
     transform="matrix(1.25,0,0,-1.25,0,575.85)"
     id="g10"><g
       transform="scale(0.1,0.1)"
       id="g12"><path
         id="path14"
         style="fill:#ffffff;fill-opacity:1;fill-rule:nonzero;stroke:none"
         d="m 465.48,2880.37 113.426,284.67 104.5,-41.64 -67.886,-170.32 65.234,-26.01 64.91,162.82 101.609,-40.47 -64.851,-162.82 156.504,-62.31 -45.559,-114.38 -427.887,170.46" /><path
         id="path16"
         style="fill:#ffffff;fill-opacity:1;fill-rule:nonzero;stroke:none"
         d="m 874.855,3107.17 -237.05,171.59 72.468,100.18 227.493,-164.7 c 45.339,-32.77 69.234,-34.74 100.194,8.04 30.23,41.77 24.02,63.89 -23.3,98.18 l -227.48,164.66 70.332,97.13 237.048,-171.58 c 93.1,-67.41 114.22,-141.04 31.88,-254.75 -80.89,-111.74 -158.46,-116.15 -251.585,-48.75" /><path
         id="path18"
         style="fill:#ffffff;fill-opacity:1;fill-rule:nonzero;stroke:none"
         d="m 969.813,3698.92 101.747,79.81 230.96,-89.82 -131.68,167.73 92.45,72.59 284.43,-362.49 -89.03,-69.8 -260.26,100.04 147.75,-188.38 -91.96,-72.13 -284.407,362.45" /><path
         id="path20"
         style="fill:#ffffff;fill-opacity:1;fill-rule:nonzero;stroke:none"
         d="m 1695.09,3747.3 c 42.51,17.63 70.1,37.14 25.49,144.5 -44.32,106.78 -74.78,97.47 -122.99,77.45 l -35.02,-14.54 92.91,-223.87 39.61,16.46 z m -289.07,263.52 141.2,58.66 c 135.46,56.23 215.55,46.43 288.49,-129.22 74.36,-179.08 24.71,-239.4 -110.2,-295.4 l -142.9,-59.37 -176.59,425.33" /><path
         id="path22"
         style="fill:#ffffff;fill-opacity:1;fill-rule:nonzero;stroke:none"
         d="m 1876.16,4182.45 302.58,44.37 16.33,-111.33 -183.27,-26.83 8.78,-59.69 175.86,25.8 15.89,-108.22 -175.89,-25.8 10.03,-68.25 183.25,26.86 15.91,-108.2 -302.57,-44.44 -66.9,455.73" /><path
         id="path24"
         style="fill:#ffffff;fill-opacity:1;fill-rule:nonzero;stroke:none"
         d="m 2469.46,3862.27 c 45.75,-4.88 79.27,-0.98 91.64,114.59 12.27,114.94 -18.89,121.39 -70.81,126.94 l -37.68,4.04 -25.77,-241.02 42.62,-4.55 z m -127.33,369.89 152.02,-16.26 c 145.85,-15.6 211.45,-62.6 191.22,-251.73 -20.57,-192.8 -93.08,-221.88 -238.33,-206.39 l -153.86,16.42 48.95,457.96" /><path
         id="path26"
         style="fill:#ffffff;fill-opacity:1;fill-rule:nonzero;stroke:none"
         d="m 2956.76,4130.96 111.57,-58.92 -69.8,-226.72 157.22,180.6 97.28,-51.33 -60.14,-231.13 148.09,184.69 105.01,-55.41 -303.88,-363.95 -102.26,53.97 65.44,255.72 -174.28,-198.27 -103.32,54.54 129.07,456.21" /><path
         id="path28"
         style="fill:#ffffff;fill-opacity:1;fill-rule:nonzero;stroke:none"
         d="m 3508.34,3812.99 92.84,-80.84 -302.57,-347.24 -92.79,80.85 302.52,347.23" /><path
         id="path30"
         style="fill:#ffffff;fill-opacity:1;fill-rule:nonzero;stroke:none"
         d="m 3656.12,3524.02 -76.06,93.47 87.22,70.95 230.61,-283.35 -87.24,-70.96 -76.08,93.48 -269.85,-219.61 -78.43,96.38 269.83,219.64" /><path
         id="path32"
         style="fill:#ffffff;fill-opacity:1;fill-rule:nonzero;stroke:none"
         d="m 3964.04,3326.83 52.21,-111.44 -148.05,-69.32 54.05,-115.4 148.04,69.33 52.74,-112.58 -417.06,-195.33 -52.74,112.57 159.85,74.84 -54.03,115.4 -159.86,-74.88 -52.19,111.44 417.04,195.37" /><path
         id="path34"
         style="fill:#ffffff;fill-opacity:1;fill-rule:nonzero;stroke:none"
         d="m 2995,3052.19 c -82.57,38.15 -168.45,57.46 -255.32,57.46 -139.62,0 -271.95,-49.86 -382.83,-144.18 l -24.73,-21.11 113.67,-133.6 24.76,21.06 c 78.41,66.71 171.71,101.94 269.85,101.94 61.38,0 122.3,-13.76 181.03,-40.91 166.53,-76.95 269.99,-241.06 269.99,-428.3 0,-193.48 -157.62,-429.94 -455.81,-683.79 -173.92,-148.06 -349.96,-262.19 -432.19,-312.95 -81.71,50.31 -256.54,163.58 -431.05,311.94 -298.92,254.22 -456.93,491.01 -456.93,684.8 0,210.39 99.22,374.05 258.94,427.05 35.43,11.76 72.37,17.71 109.82,17.71 155.51,0 314.93,-98.96 448.83,-278.64 l 19.44,-26.08 140.72,104.86 -19.44,26.07 c -214.38,287.55 -439.33,347.91 -590.24,347.91 -72.76,0 -129.54,-13.78 -164.36,-25.32 -233.91,-77.55 -379.18,-305 -379.18,-593.56 0,-581.45 978.07,-1151.2 1019.79,-1175.17 l 43.66,-25.03 43.69,25.08 c 41.58,23.92 1019.74,593.22 1019.74,1175.12 0,256.47 -142.48,481.64 -371.85,587.64" /><path
         id="path36"
         style="fill:#ffffff;fill-opacity:1;fill-rule:nonzero;stroke:none"
         d="m 1075.03,1518.38 75.38,-101.07 -378.222,-282.19 -75.411,101.07 378.253,282.19" /><path
         id="path38"
         style="fill:#ffffff;fill-opacity:1;fill-rule:nonzero;stroke:none"
         d="m 1171.84,1370.82 97.51,-89.53 -52.51,-248.18 147.67,160.76 88.6,-81.34 -319.03,-347.382 -85.31,78.372 57.96,279.49 -165.761,-180.459 -88.156,80.929 319.027,347.34" /><path
         id="path40"
         style="fill:#ffffff;fill-opacity:1;fill-rule:nonzero;stroke:none"
         d="m 1473.4,693.469 c 42.15,-21.039 75.7,-29.188 128.79,77.301 52.76,106.011 25.11,123.308 -22.71,147.152 l -34.79,17.34 -110.65,-222.223 39.36,-19.57 z m 9.57,400.471 140.14,-69.72 c 134.45,-67.029 180.68,-135.529 93.88,-309.868 -88.49,-177.774 -168.51,-179.891 -302.37,-113.18 l -141.89,70.609 210.24,422.159" /><path
         id="path42"
         style="fill:#ffffff;fill-opacity:1;fill-rule:nonzero;stroke:none"
         d="m 1839.27,932.109 121.34,-34.078 -127.43,-454.043 -121.3,34.043 127.39,454.078" /><path
         id="path44"
         style="fill:#ffffff;fill-opacity:1;fill-rule:nonzero;stroke:none"
         d="m 2015.68,871.711 311.79,-29.609 -10.84,-114.68 -188.89,17.969 -5.82,-61.481 181.23,-17.211 -10.56,-111.551 -181.25,17.172 -6.71,-70.3 188.86,-17.969 -10.58,-111.563 -311.77,29.602 44.54,469.621" /><path
         id="path46"
         style="fill:#ffffff;fill-opacity:1;fill-rule:nonzero;stroke:none"
         d="m 3063.19,778.051 c -30.42,70.738 -58.06,110.91 -121.19,83.711 -63.73,-27.403 -53.64,-75.024 -23.2,-145.801 30.64,-71.359 58.26,-111.441 122.01,-83.992 63.14,27.152 53.05,74.812 22.38,146.082 z M 2799.5,669.512 c -50.06,116.406 -66.89,234.527 94.48,303.918 161.38,69.4 234.96,-24.371 285,-140.7 49.75,-115.789 66.63,-233.949 -94.16,-303.109 -161.39,-69.391 -235.56,24.141 -285.32,139.891" /><path
         id="path48"
         style="fill:#ffffff;fill-opacity:1;fill-rule:nonzero;stroke:none"
         d="m 3750.11,1347.13 c -61.84,45.96 -105.91,66.79 -146.91,11.58 -41.38,-55.73 -8.74,-91.9 53.09,-137.81 62.36,-46.36 106.4,-67.19 147.82,-11.45 40.98,55.2 8.36,91.36 -54,137.68 z M 3576.36,1120.8 c -101.71,75.6 -175.61,169.34 -70.76,310.45 104.82,141.07 215.56,96.83 317.28,21.28 101.18,-75.22 175.1,-169 70.68,-309.54 -104.88,-141.07 -215.97,-97.37 -317.2,-22.19" /><path
         id="path50"
         style="fill:#ffffff;fill-opacity:1;fill-rule:nonzero;stroke:none"
         d="m 2564.06,680.32 -0.97,-104.879 81.82,10.309 1.05,-8.309 c 6.61,-52.421 11.17,-75.351 -51.3,-83.23 -58.29,-7.359 -81.56,17.027 -95.05,124 -14.06,111.437 17.54,129.078 67.5,135.391 37.11,4.679 64.6,-1.602 87.95,-11.051 l 54.55,114.277 c -38.83,18.531 -93.26,27.262 -152.18,19.82 C 2393.5,855.98 2350.9,770.551 2371.67,605.969 c 18.09,-143.469 69.05,-237.899 224.67,-218.27 27.58,3.473 51.04,8.36 70.95,14.789 l 116.64,14.731 -25.04,198.543 -11.08,87.769 -183.75,-23.211" /><path
         id="path52"
         style="fill:#ffffff;fill-opacity:1;fill-rule:nonzero;stroke:none"
         d="m 3338.84,1021.17 55.57,-88.92 63.45,52.691 5.34,-6.441 c 33.79,-40.629 49.95,-57.5 1.54,-97.75 -45.18,-37.559 -77.91,-29.52 -146.84,53.391 -71.8,86.369 -54.64,118.249 -15.92,150.449 28.76,23.91 55.32,33.38 80.08,37.99 l -15.5,125.69 c -42.69,-5.27 -93.27,-27.19 -138.94,-65.16 C 3100.55,1077.5 3110.61,982.57 3216.63,855 c 92.43,-111.211 186.2,-163.398 306.82,-63.129 21.39,17.75 38.52,34.5 51.85,50.629 l 90.41,75.16 -127.92,153.9 -56.53,68.01 -142.42,-118.4" /><path
         id="path54"
         style="fill:#ffffff;fill-opacity:1;fill-rule:nonzero;stroke:none"
         d="m 2303.4,227.68 c -1144.56,0 -2075.705,931.14 -2075.705,2075.72 0,1144.54 931.145,2075.73 2075.705,2075.73 1144.54,0 2075.72,-931.19 2075.72,-2075.73 0,-1144.58 -931.18,-2075.72 -2075.72,-2075.72 z m 0,4379.12 C 1033.29,4606.8 0,3573.5 0,2303.4 0,1033.27 1033.29,0 2303.4,0 c 1270.11,0 2303.4,1033.27 2303.4,2303.4 0,1270.1 -1033.29,2303.4 -2303.4,2303.4" /></g></g></svg>