<?xml version="1.0" encoding="utf-8"?>
<!-- Generator: Adobe Illustrator 16.0.0, SVG Export Plug-In . SVG Version: 6.00 Build 0)  -->
<!DOCTYPE svg PUBLIC "-//W3C//DTD SVG 1.1//EN" "http://www.w3.org/Graphics/SVG/1.1/DTD/svg11.dtd">
<svg version="1.1" id="Layer_1" xmlns="http://www.w3.org/2000/svg" xmlns:xlink="http://www.w3.org/1999/xlink" x="0px" y="0px"
	 width="850.39px" height="850.39px" viewBox="0 0 850.39 850.39" enable-background="new 0 0 850.39 850.39" xml:space="preserve">
<g>
	<polygon fill="#FFFFFF" points="151.063,419.471 143.484,421.134 140.236,415.032 144.026,403.381 135.364,400.053 
		125.619,400.606 133.2,390.621 133.2,381.747 124.537,382.301 121.83,386.184 114.794,391.73 103.425,389.513 103.966,373.424 
		107.213,357.892 120.207,354.562 135.364,353.451 145.65,356.227 147.814,369.54 153.228,368.432 154.311,352.342 163.514,343.467 
		173.799,337.364 179.212,324.604 192.204,312.956 209.527,308.518 212.775,298.532 211.152,288.546 229.016,288.546 
		238.218,284.108 233.346,275.231 226.851,270.239 229.557,259.698 213.858,259.698 212.775,251.933 196.536,253.595 
		193.829,267.464 183.543,275.231 183.543,283.552 175.965,282.999 178.13,273.569 160.808,272.458 157.558,264.135 
		173.258,251.376 184.086,245.273 191.122,241.946 186.25,230.297 174.88,231.405 164.596,236.953 147.814,239.173 127.244,233.625 
		103.425,232.516 94.762,235.288 72.027,229.742 47.665,230.297 18.976,246.938 9.082,256.427 8.69,268.574 16.968,270.975 
		27.096,266.356 32.509,260.253 45.501,258.589 60.659,268.02 61.742,279.114 68.238,292.984 62.283,304.079 55.246,317.393 
		53.622,337.919 61.2,345.686 59.577,358.446 69.862,380.08 72.568,377.862 65.531,360.111 68.78,355.116 77.441,372.315 
		83.396,387.293 99.635,399.497 109.38,398.388 118.582,407.266 126.703,407.266 132.659,416.694 138.611,426.682 153.228,427.235 	
		"/>
	<polygon fill="#FFFFFF" points="264.744,464.959 255.542,464.959 250.668,457.194 233.346,457.194 232.266,450.536 
		227.933,436.111 211.152,433.337 200.866,426.682 190.582,426.682 184.626,418.361 173.258,413.366 160.808,420.579 
		154.853,432.229 153.77,447.207 146.732,454.973 145.107,471.063 151.604,478.83 153.228,491.588 164.596,500.464 177.589,510.449 
		179.212,524.876 179.212,544.291 179.754,556.492 179.212,572.582 181.919,596.991 188.957,616.963 203.031,630.274 
		216.566,631.943 214.4,626.396 206.281,621.404 202.49,614.745 209.527,608.088 210.068,601.43 204.654,599.767 202.49,592 
		207.903,587.006 210.068,579.241 221.978,578.131 223.603,570.919 218.188,567.591 217.106,562.597 227.933,565.371 
		237.678,552.055 238.218,538.188 245.255,527.646 256.624,525.983 262.038,515.443 262.581,496.579 269.616,487.15 276.655,473.28 
		266.367,471.063 	"/>
	<polygon fill="#FFFFFF" points="335.659,221.418 335.659,214.763 338.909,208.658 348.111,206.995 347.029,202.002 
		338.366,202.002 317.254,195.347 297.766,197.011 273.406,200.895 244.173,211.989 246.339,218.092 258.247,216.981 
		264.744,226.968 259.872,238.062 259.872,250.267 265.827,256.923 276.114,258.033 285.857,248.049 299.39,244.166 
		305.887,235.844 322.669,234.734 329.164,225.858 	"/>
	<polygon fill="#FFFFFF" points="226.851,299.087 229.016,300.196 238.218,302.415 242.008,296.312 236.054,289.655 	"/>
	<polygon fill="#FFFFFF" points="147.814,377.862 138.07,378.972 149.439,381.747 160.808,388.403 170.552,387.847 164.596,380.637 
			"/>
	<polygon fill="#FFFFFF" points="184.086,389.513 175.965,386.184 167.846,394.505 179.212,394.505 	"/>
	<polygon fill="#FFFFFF" points="148.357,219.755 134.281,220.865 125.619,225.302 133.2,226.968 	"/>
	<polygon fill="#FFFFFF" points="242.551,239.728 234.43,233.625 226.851,225.858 217.647,224.747 200.866,221.976 197.076,224.747 
		197.62,233.625 194.371,236.953 195.994,240.836 202.49,238.617 206.281,243.61 215.482,249.713 223.603,254.705 230.098,249.158 
		229.016,242.501 234.97,244.166 	"/>
	<polygon fill="#FFFFFF" points="199.784,218.092 219.27,219.755 226.851,213.653 240.926,208.658 256.624,203.668 258.79,200.339 
		217.106,202.002 201.407,205.331 204.114,207.549 209.527,211.989 202.49,211.435 	"/>
	<polygon fill="#FFFFFF" points="140.776,234.18 152.688,234.18 162.43,231.96 165.679,223.639 150.522,223.084 137.529,227.522 	
		"/>
	<polygon fill="#FFFFFF" points="176.504,214.208 163.514,214.763 157.558,218.092 170.009,219.755 	"/>
	<polygon fill="#FFFFFF" points="179.212,225.858 184.086,221.976 177.047,220.865 173.258,225.302 	"/>
	<polygon fill="#FFFFFF" points="197.076,220.311 189.499,220.311 187.333,224.747 192.204,225.302 	"/>
	<polygon fill="#FFFFFF" points="187.874,246.384 187.333,249.713 185.708,251.933 195.994,249.713 193.287,242.501 	"/>
	<polygon fill="#FFFFFF" points="57.952,281.889 52.538,276.34 53.081,281.334 56.87,287.991 	"/>
	<polygon fill="#FFFFFF" points="503.476,493.252 494.272,507.121 493.731,517.661 490.48,520.435 489.4,530.42 495.357,536.523 
		501.31,529.313 505.098,514.334 508.888,502.128 508.349,491.588 	"/>
	<polygon fill="#FFFFFF" points="355.149,276.34 349.194,279.67 348.653,286.327 356.231,284.108 	"/>
	<polygon fill="#FFFFFF" points="364.893,280.779 361.104,284.108 360.02,291.321 369.222,287.991 374.094,284.108 373.012,279.67 
		366.518,275.231 369.766,270.239 364.351,262.473 357.856,269.683 360.562,278.006 	"/>
	<polygon fill="#FFFFFF" points="597.127,433.894 600.918,433.337 600.918,424.463 595.503,423.351 	"/>
	<path fill="#FFFFFF" d="M673.578,403.526l-3.574-5.173l-6.941-5.172l1.052-11.64h15.141l11.359-3.447l7.569-7.759l1.263-12.07
		l-1.051-10.777l-5.89-10.345l-10.515-4.957l-1.893-6.036l7.99-4.309l9.677,3.016l6.938,3.233l4.794-4.31l-2.69-5.173l1.683-6.896
		l10.304-1.727l2.735-5.172l-0.737-14.764l0.32-9.376l-14.516-0.969l-9.147-0.324v-7.436l4.731-7.435h13.566l7.571,0.968
		l0.946-3.233l4.102-5.497l8.516,2.265l3.787,7.435l0.633,8.406l6.622,6.466l1.894,6.143h5.996l5.045-4.526l-2.839-9.698
		l-5.993-3.88l-0.946-7.758l10.095-2.586l9.149-2.909l1.576-2.911l-3.469-2.264l0.629-4.202h12.62v-6.466l-14.51-2.91l-14.831-2.263
		l-9.462-2.585h-13.251l-30.599-1.813h-17.982l-8.202-4.653h-14.196l-4.42,4.653l-12.619-2.713l-4.289,2.713l0,0l-13.937,2.378
		l-2.706-5.547l-24.902-2.775h-16.239l2.705-6.101c0,0-20.03-3.883-21.652-3.883c-1.626,0-10.828-3.883-10.828-3.883l-9.745-4.439
		h-9.744l3.249,6.659l11.912-0.556l-0.541,4.438l-10.287,2.774l-16.781,7.767l-6.496,3.329l-5.954-5.549l-7.581,3.328l7.581,8.878
		l-10.83,1.109l-18.401-1.109l-16.243,3.328l-8.12,7.213l-5.95,4.993l-4.333-6.657l9.741-3.883l-1.623-3.328l-15.697-2.774
		l-20.571-3.883l-15.7,5.547l-8.12,10.541l-7.038,6.102l-2.707,4.439l1.625,8.319l10.284-2.773l1.592,3.587l-4.569,0.852
		l1.083,4.439h5.413l-0.233-2.395l7.002,4.613l4.873-6.104l-3.251-9.43l2.707-6.658l6.495-4.991l5.415-1.666l-3.248,7.213
		l1.625,7.212l14.615-1.11l2.708,4.438l-11.912,2.219l-3.247,9.43l-5.957,2.774l-10.824,2.22l-13.534-1.664l-7.037,1.664
		l-4.33,6.104l-5.955,3.883l-9.747,2.771l-3.247,6.104l6.495,3.329l-3.788,4.993l-7.037,2.774l-7.58,1.109v10.541l-1.625,8.322
		l8.121,3.882l12.991-3.882l0.544-9.432l8.119-3.885l2.707-6.102l9.743,2.221l3.249-2.774l6.497,4.438l7.578,7.212l3.248,5.548
		l-5.414,2.774l4.329,4.436l6.495-5.546l-2.163-9.987l-10.828-8.875l2.709-3.33l6.493,6.659l8.118,7.765l5.417,6.104l-0.544,5.545
		l5.412,3.33l0.541-4.991l-1.622-8.322l7.581-2.219l9.199-0.557l7.582,6.103l-3.248,3.886l-12.993-0.558l1.623,2.775l11.37,2.218
		l12.994,1.111l1.62,11.093l0.473,5.33l-20.231-3.111l-12.449-7.765l-7.04,1.109l2.708,8.875l-4.33,4.995l-8.662-5.55l-0.542-6.655
		l-15.698-2.774l4.331-7.212l-16.241-1.665l-15.159,4.993h-13.533l-8.661,9.43l-0.542,10.542l-11.911,4.437l-7.578,15.535
		l1.625,17.197l-5.415,8.875l2.166,7.212l7.581,5.547l3.247,10.542l14.617,11.094l12.991-3.327l12.452-5.549l9.201,1.664
		l1.083,6.656l11.37-1.108l1.082,15.531l5.955,11.096l4.332,18.308l1.623,11.097l-5.413,2.774l-2.166,11.647l5.956,8.88l1.623,9.43
		v12.758l6.496,5.55l2.164,17.2l11.91,3.88l18.406-5.548l8.662-17.75l1.625-11.101l6.493,1.669l2.167-12.207l-4.871-6.101
		l15.699-5.548l4.328-9.429l-1.622-12.764l-1.085-16.087l8.662-18.309l14.076-13.313l9.202-23.3l-15.157,2.776l-8.662-6.659
		l-12.451-18.86l-11.368-17.753l-3.788-10.542l1.202-6.156l0.153,1.719l9.202,13.313l4.328,14.423l9.203,3.328v12.206l3.789,7.211
		l16.24-2.775l12.452-11.093l11.907-7.768l-1.623-7.767l-9.202-6.655v-3.884l-8.119,6.657l-4.876-6.102l-8.113-5.548l-1.088-9.431
		l7.578,3.329l8.122,7.212l9.202-2.219l2.705,5.548l18.95,1.11l9.2,1.109l2.708,8.322l5.954,4.993l4.872-1.665l2.166,14.423
		l7.039,13.87l7.576,13.868l5.415-4.437v-18.308l12.99-11.651l8.121-9.983l9.202-1.11l6.498,12.206l4.87,8.32l8.195,0.493
		l6.78,3.811l5.049,2.264h6.309l1.261,8.729l6.731,6.892l6.521-2.151l3.574-9.269L673.578,403.526z"/>
	<polygon fill="#FFFFFF" points="696.503,431.977 691.132,439.735 678.836,449.425 680.728,459.132 691.141,464.308 
		696.815,462.042 701.232,453.314 703.43,440.383 700.603,431.977 	"/>
	<polygon fill="#FFFFFF" points="662.432,453.961 659.59,448.143 650.443,448.143 650.443,453.637 654.547,464.308 660.538,468.831 
		668.74,468.831 668.74,463.012 663.692,460.566 	"/>
	<polygon fill="#FFFFFF" points="657.383,441.677 661.485,438.767 656.436,433.894 655.175,428.622 648.234,423.351 
		646.657,418.399 643.187,421.632 648.234,428.622 652.337,435.856 	"/>
	<polygon fill="#FFFFFF" points="734.675,343.07 740.984,340.483 745.717,337.25 747.924,327.552 744.77,319.47 742.561,314.62 
		743.191,310.094 738.144,307.831 737.516,302.335 734.675,299.749 730.257,303.304 734.675,313.973 734.675,320.117 
		734.675,330.139 725.842,335.958 718.901,340.483 718.901,346.949 723.633,351.152 732.782,351.152 	"/>
	<polygon fill="#FFFFFF" points="787.673,523.794 783.573,514.059 779.157,514.059 778.212,506.011 776.316,497.283 774.109,490.17 
		769.69,491.588 767.171,493.08 767.171,501.483 763.697,507.626 759.598,507.626 754.235,503.102 754.235,496.636 752.34,486.938 
		743.509,486.938 742.878,491.588 736.095,493.727 733.411,497.931 723.318,496.636 718.901,501.483 712.274,505.687 
		709.437,514.059 703.43,516.68 692.717,520.881 684.514,526.379 683.568,538.018 678.836,543.516 678.836,557.737 682.62,562.912 
		688.93,565.371 698.396,560.651 708.49,557.414 715.43,551.92 723.318,550.629 728.996,555.153 733.411,562.266 736.565,565.371 
		740.984,562.912 743.509,567.761 743.509,574.875 754.235,576.488 760.229,576.488 763.067,572.935 770.954,565.371 
		777.895,561.617 781.681,553.862 791.144,547.069 793.353,538.018 791.776,530.583 	"/>
	<polygon fill="#FFFFFF" points="749.817,585.219 744.77,585.863 744.77,590.067 749.187,592.98 756.442,589.424 759.912,585.863 
		752.34,582.631 	"/>
	<polygon fill="#FFFFFF" points="837.519,565.371 834.051,565.371 832.788,571.317 825.532,576.488 820.484,579.077 
		815.752,585.543 810.074,587.804 801.555,592.98 796.822,592.98 796.822,600.09 800.924,602.355 808.497,600.736 814.492,597.664 
		822.062,590.067 832.474,587.804 839.412,580.691 841.304,570.992 	"/>
	<polygon fill="#FFFFFF" points="793.353,479.5 794.931,472.711 801.555,468.831 807.233,475.943 816.698,482.085 823.953,482.085 
		823.953,476.591 816.382,474.978 812.282,467.863 802.817,460.566 794.931,460.566 784.183,465.463 784.183,465.463 
		783.573,464.308 772.532,464.308 768.114,458.487 760.229,453.637 754.235,456.87 754.235,458.487 749.5,458.487 746.034,453.637 
		744.77,446.524 737.516,449.425 740.669,458.487 747.924,464.308 754.9,466.438 763.067,472.711 765.907,480.472 772.847,482.085 
		781.681,482.085 781.724,482.018 783.889,483.705 793.353,488.552 796.822,486.938 	"/>
	<polygon fill="#FFFFFF" points="731.521,430.038 725.842,426.126 727.103,418.399 723.633,413.709 716.536,408.052 
		716.536,401.586 709.121,392.211 705.336,394.797 707.229,407.73 701.552,416.781 703.43,424.863 711.961,420.986 716.062,424.863 
		719.849,433.894 731.521,435.209 	"/>
	<polygon fill="#FFFFFF" points="709.121,458.487 707.545,467.54 716.536,471.097 718.901,467.54 718.901,461.722 722.055,458.487 
		722.055,451.052 728.996,448.143 720.478,441.677 711.645,448.143 	"/>
	<polygon fill="#FFFFFF" points="696.187,482.085 699.343,488.552 712.908,486.938 724.265,485 727.418,480.632 720.792,477.562 
		714.799,482.085 707.545,482.085 703.43,478.529 691.132,475.297 681.991,471.097 674.42,472.711 672.524,477.238 683.253,479.824 
			"/>
</g>
<path fill-rule="evenodd" clip-rule="evenodd" fill="#3B97D3" d="M581.392,379.604c-5.77,0-10.446,4.678-10.446,10.447
	c0,5.02,3.54,9.212,8.26,10.217c0.549,0.117,0.523,0.641,0.622,1.231l1.564,9.369l1.566-9.377c0.103-0.615,0.071-1.104,0.646-1.228
	c4.707-1.015,8.234-5.201,8.234-10.212C591.838,384.281,587.161,379.604,581.392,379.604z"/>
<path fill-rule="evenodd" clip-rule="evenodd" fill="#F36F60" d="M581.392,398.626c4.724,0,8.575-3.852,8.575-8.575
	s-3.852-8.575-8.575-8.575c-4.723,0-8.575,3.852-8.575,8.575S576.669,398.626,581.392,398.626z"/>
<path fill-rule="evenodd" clip-rule="evenodd" fill="#3B97D3" d="M435.642,525.604c-5.77,0-10.446,4.678-10.446,10.447
	c0,5.02,3.54,9.211,8.26,10.217c0.549,0.116,0.523,0.641,0.622,1.23l1.564,9.369l1.566-9.377c0.103-0.615,0.071-1.104,0.646-1.229
	c4.707-1.014,8.234-5.201,8.234-10.211C446.088,530.281,441.411,525.604,435.642,525.604z"/>
<path fill-rule="evenodd" clip-rule="evenodd" fill="#F36F60" d="M435.642,544.625c4.724,0,8.575-3.852,8.575-8.574
	c0-4.724-3.852-8.576-8.575-8.576c-4.723,0-8.575,3.853-8.575,8.576C427.066,540.773,430.919,544.625,435.642,544.625z"/>
<path fill-rule="evenodd" clip-rule="evenodd" fill="#3B97D3" d="M733.412,500.447c-5.77,0-10.446,4.678-10.446,10.447
	c0,5.02,3.54,9.213,8.26,10.217c0.549,0.117,0.523,0.642,0.622,1.232l1.564,9.369l1.566-9.378c0.103-0.614,0.071-1.104,0.646-1.228
	c4.707-1.016,8.234-5.201,8.234-10.213C743.858,505.125,739.182,500.447,733.412,500.447z"/>
<path fill-rule="evenodd" clip-rule="evenodd" fill="#F36F60" d="M733.412,519.471c4.724,0,8.575-3.853,8.575-8.576
	c0-4.723-3.852-8.574-8.575-8.574c-4.723,0-8.575,3.852-8.575,8.574C724.837,515.618,728.689,519.471,733.412,519.471z"/>
<path fill-rule="evenodd" clip-rule="evenodd" fill="#3B97D3" d="M826.726,552.599c-5.77,0-10.446,4.678-10.446,10.447
	c0,5.02,3.54,9.212,8.26,10.217c0.549,0.117,0.523,0.641,0.622,1.231l1.564,9.369l1.566-9.378c0.103-0.614,0.071-1.104,0.646-1.228
	c4.707-1.015,8.234-5.201,8.234-10.212C837.172,557.276,832.495,552.599,826.726,552.599z"/>
<path fill-rule="evenodd" clip-rule="evenodd" fill="#F36F60" d="M826.726,571.621c4.724,0,8.575-3.853,8.575-8.575
	s-3.852-8.575-8.575-8.575c-4.723,0-8.575,3.853-8.575,8.575S822.003,571.621,826.726,571.621z"/>
<path fill-rule="evenodd" clip-rule="evenodd" fill="#3B97D3" d="M396.725,231.208c-5.77,0-10.446,4.678-10.446,10.447
	c0,5.02,3.54,9.212,8.26,10.217c0.549,0.117,0.523,0.641,0.622,1.231l1.564,9.369l1.566-9.377c0.103-0.615,0.071-1.104,0.646-1.228
	c4.707-1.015,8.234-5.201,8.234-10.212C407.171,235.886,402.495,231.208,396.725,231.208z"/>
<path fill-rule="evenodd" clip-rule="evenodd" fill="#F36F60" d="M396.725,250.231c4.724,0,8.575-3.852,8.575-8.575
	s-3.852-8.575-8.575-8.575c-4.723,0-8.575,3.852-8.575,8.575S392.002,250.231,396.725,250.231z"/>
<path fill-rule="evenodd" clip-rule="evenodd" fill="#3B97D3" d="M437.513,238.788c-5.77,0-10.446,4.678-10.446,10.447
	c0,5.02,3.54,9.212,8.26,10.217c0.549,0.117,0.523,0.641,0.622,1.231l1.564,9.369l1.566-9.377c0.103-0.615,0.071-1.104,0.646-1.228
	c4.707-1.015,8.234-5.201,8.234-10.212C447.959,243.466,443.282,238.788,437.513,238.788z"/>
<path fill-rule="evenodd" clip-rule="evenodd" fill="#F36F60" d="M437.513,257.811c4.724,0,8.575-3.852,8.575-8.575
	s-3.852-8.575-8.575-8.575c-4.723,0-8.575,3.852-8.575,8.575S432.79,257.811,437.513,257.811z"/>
<path fill-rule="evenodd" clip-rule="evenodd" fill="#3B97D3" d="M489.4,341.843c-5.77,0-10.446,4.678-10.446,10.447
	c0,5.02,3.54,9.212,8.26,10.217c0.549,0.117,0.523,0.641,0.622,1.231l1.564,9.369l1.566-9.377c0.103-0.615,0.071-1.104,0.646-1.228
	c4.707-1.015,8.234-5.201,8.234-10.212C499.847,346.521,495.17,341.843,489.4,341.843z"/>
<path fill-rule="evenodd" clip-rule="evenodd" fill="#F36F60" d="M489.4,360.866c4.724,0,8.575-3.852,8.575-8.575
	s-3.852-8.575-8.575-8.575c-4.723,0-8.575,3.852-8.575,8.575S484.678,360.866,489.4,360.866z"/>
<path fill-rule="evenodd" clip-rule="evenodd" fill="#3B97D3" d="M352.442,294.186c-5.77,0-10.446,4.678-10.446,10.447
	c0,5.02,3.54,9.212,8.26,10.217c0.549,0.117,0.523,0.641,0.622,1.231l1.564,9.369l1.566-9.377c0.103-0.615,0.071-1.104,0.646-1.228
	c4.707-1.015,8.234-5.201,8.234-10.212C362.889,298.864,358.212,294.186,352.442,294.186z"/>
<path fill-rule="evenodd" clip-rule="evenodd" fill="#F36F60" d="M352.442,313.208c4.724,0,8.575-3.852,8.575-8.575
	s-3.852-8.575-8.575-8.575c-4.723,0-8.575,3.852-8.575,8.575S347.72,313.208,352.442,313.208z"/>
<path fill-rule="evenodd" clip-rule="evenodd" fill="#3B97D3" d="M388.15,270.695c-5.77,0-10.446,4.678-10.446,10.447
	c0,5.02,3.54,9.212,8.26,10.217c0.549,0.117,0.523,0.641,0.622,1.231l1.564,9.369l1.566-9.377c0.103-0.615,0.071-1.104,0.646-1.228
	c4.707-1.015,8.234-5.201,8.234-10.212C398.596,275.373,393.919,270.695,388.15,270.695z"/>
<path fill-rule="evenodd" clip-rule="evenodd" fill="#F36F60" d="M388.15,289.717c4.724,0,8.575-3.852,8.575-8.575
	s-3.852-8.575-8.575-8.575c-4.723,0-8.575,3.852-8.575,8.575S383.427,289.717,388.15,289.717z"/>
<path fill-rule="evenodd" clip-rule="evenodd" fill="#3B97D3" d="M127.624,309.818c-5.77,0-10.446,4.678-10.446,10.447
	c0,5.02,3.54,9.212,8.26,10.217c0.549,0.117,0.523,0.641,0.622,1.231l1.564,9.369l1.566-9.377c0.103-0.615,0.071-1.104,0.646-1.228
	c4.707-1.015,8.234-5.201,8.234-10.212C138.07,314.496,133.394,309.818,127.624,309.818z"/>
<path fill-rule="evenodd" clip-rule="evenodd" fill="#F36F60" d="M127.624,328.841c4.724,0,8.575-3.852,8.575-8.575
	s-3.852-8.575-8.575-8.575c-4.723,0-8.575,3.852-8.575,8.575S122.901,328.841,127.624,328.841z"/>
<path fill-rule="evenodd" clip-rule="evenodd" fill="#3B97D3" d="M127.624,250.231c-5.77,0-10.446,4.678-10.446,10.447
	c0,5.02,3.54,9.212,8.26,10.217c0.549,0.117,0.523,0.641,0.622,1.231l1.564,9.369l1.566-9.377c0.103-0.615,0.071-1.104,0.646-1.228
	c4.707-1.015,8.234-5.201,8.234-10.212C138.07,254.909,133.394,250.231,127.624,250.231z"/>
<path fill-rule="evenodd" clip-rule="evenodd" fill="#F36F60" d="M127.624,269.253c4.724,0,8.575-3.852,8.575-8.575
	s-3.852-8.575-8.575-8.575c-4.723,0-8.575,3.852-8.575,8.575S122.901,269.253,127.624,269.253z"/>
<path fill-rule="evenodd" clip-rule="evenodd" fill="#3B97D3" d="M234.429,471.937c-5.77,0-10.446,4.678-10.446,10.447
	c0,5.02,3.54,9.212,8.26,10.217c0.549,0.116,0.523,0.642,0.622,1.231l1.564,9.369l1.566-9.377c0.103-0.615,0.071-1.105,0.646-1.229
	c4.707-1.015,8.234-5.201,8.234-10.212C244.875,476.614,240.199,471.937,234.429,471.937z"/>
<path fill-rule="evenodd" clip-rule="evenodd" fill="#F36F60" d="M234.429,490.959c4.724,0,8.575-3.852,8.575-8.575
	s-3.852-8.575-8.575-8.575c-4.723,0-8.575,3.852-8.575,8.575S229.707,490.959,234.429,490.959z"/>
<path fill-rule="evenodd" clip-rule="evenodd" fill="#3B97D3" d="M209.08,536.05c-5.77,0-10.446,4.678-10.446,10.447
	c0,5.02,3.54,9.212,8.26,10.217c0.549,0.117,0.523,0.641,0.622,1.231l1.564,9.369l1.566-9.378c0.103-0.614,0.071-1.104,0.646-1.228
	c4.707-1.015,8.234-5.201,8.234-10.212C219.526,540.728,214.849,536.05,209.08,536.05z"/>
<path fill-rule="evenodd" clip-rule="evenodd" fill="#F36F60" d="M209.08,555.072c4.724,0,8.575-3.853,8.575-8.575
	s-3.852-8.575-8.575-8.575c-4.723,0-8.575,3.853-8.575,8.575S204.357,555.072,209.08,555.072z"/>
<path fill-rule="evenodd" clip-rule="evenodd" fill="#3B97D3" d="M649.146,370.273c-5.77,0-10.446,4.678-10.446,10.447
	c0,5.02,3.54,9.212,8.26,10.217c0.549,0.117,0.523,0.641,0.622,1.231l1.564,9.369l1.566-9.378c0.103-0.614,0.071-1.104,0.646-1.228
	c4.707-1.015,8.234-5.201,8.234-10.212C659.592,374.951,654.915,370.273,649.146,370.273z"/>
<path fill-rule="evenodd" clip-rule="evenodd" fill="#F36F60" d="M649.146,389.296c4.724,0,8.575-3.853,8.575-8.575
	s-3.852-8.575-8.575-8.575c-4.723,0-8.575,3.853-8.575,8.575S644.423,389.296,649.146,389.296z"/>
<path fill-rule="evenodd" clip-rule="evenodd" fill="#3B97D3" d="M691.133,419.577c-5.77,0-10.446,4.678-10.446,10.447
	c0,5.02,3.54,9.212,8.26,10.217c0.549,0.117,0.523,0.641,0.622,1.231l1.564,9.369l1.566-9.378c0.103-0.614,0.071-1.104,0.646-1.228
	c4.707-1.015,8.234-5.201,8.234-10.212C701.579,424.255,696.902,419.577,691.133,419.577z"/>
<path fill-rule="evenodd" clip-rule="evenodd" fill="#F36F60" d="M691.133,438.6c4.724,0,8.575-3.853,8.575-8.575
	s-3.852-8.575-8.575-8.575c-4.723,0-8.575,3.853-8.575,8.575S686.41,438.6,691.133,438.6z"/>
<path fill-rule="evenodd" clip-rule="evenodd" fill="#3B97D3" d="M707.545,270.695c-5.77,0-10.446,4.678-10.446,10.447
	c0,5.02,3.54,9.212,8.26,10.217c0.549,0.117,0.523,0.641,0.622,1.231l1.564,9.369l1.566-9.378c0.103-0.614,0.071-1.104,0.646-1.228
	c4.707-1.015,8.234-5.201,8.234-10.212C717.991,275.373,713.314,270.695,707.545,270.695z"/>
<path fill-rule="evenodd" clip-rule="evenodd" fill="#F36F60" d="M707.545,289.717c4.724,0,8.575-3.853,8.575-8.575
	s-3.852-8.575-8.575-8.575c-4.723,0-8.575,3.853-8.575,8.575S702.822,289.717,707.545,289.717z"/>
<path fill-rule="evenodd" clip-rule="evenodd" fill="#3B97D3" d="M649.146,304.633c-5.77,0-10.446,4.678-10.446,10.447
	c0,5.02,3.54,9.212,8.26,10.217c0.549,0.117,0.523,0.641,0.622,1.231l1.564,9.369l1.566-9.378c0.103-0.614,0.071-1.104,0.646-1.228
	c4.707-1.015,8.234-5.201,8.234-10.212C659.592,309.311,654.915,304.633,649.146,304.633z"/>
<path fill-rule="evenodd" clip-rule="evenodd" fill="#F36F60" d="M649.146,323.656c4.724,0,8.575-3.853,8.575-8.575
	s-3.852-8.575-8.575-8.575c-4.723,0-8.575,3.853-8.575,8.575S644.423,323.656,649.146,323.656z"/>
<path fill-rule="evenodd" clip-rule="evenodd" fill="#3B97D3" d="M520.543,353.151c-5.77,0-10.446,4.678-10.446,10.447
	c0,5.02,3.54,9.212,8.26,10.217c0.549,0.117,0.523,0.641,0.622,1.231l1.564,9.369l1.566-9.378c0.103-0.614,0.071-1.104,0.646-1.228
	c4.707-1.015,8.234-5.201,8.234-10.212C530.989,357.829,526.312,353.151,520.543,353.151z"/>
<path fill-rule="evenodd" clip-rule="evenodd" fill="#F36F60" d="M520.543,372.174c4.724,0,8.575-3.853,8.575-8.575
	s-3.852-8.575-8.575-8.575c-4.723,0-8.575,3.853-8.575,8.575S515.82,372.174,520.543,372.174z"/>
<path fill-rule="evenodd" clip-rule="evenodd" fill="#3B97D3" d="M458.405,286.327c-5.77,0-10.446,4.678-10.446,10.447
	c0,5.02,3.54,9.212,8.26,10.217c0.549,0.117,0.523,0.641,0.622,1.231l1.564,9.369l1.566-9.378c0.103-0.614,0.071-1.104,0.646-1.228
	c4.707-1.015,8.234-5.201,8.234-10.212C468.852,291.005,464.175,286.327,458.405,286.327z"/>
<path fill-rule="evenodd" clip-rule="evenodd" fill="#F36F60" d="M458.405,305.35c4.724,0,8.575-3.853,8.575-8.575
	s-3.852-8.575-8.575-8.575c-4.723,0-8.575,3.853-8.575,8.575S453.683,305.35,458.405,305.35z"/>
<path fill-rule="evenodd" clip-rule="evenodd" fill="#3B97D3" d="M365.975,250.231c-5.77,0-10.446,4.678-10.446,10.447
	c0,5.02,3.54,9.212,8.26,10.217c0.549,0.117,0.523,0.641,0.622,1.231l1.564,9.369l1.566-9.378c0.103-0.614,0.071-1.104,0.646-1.228
	c4.707-1.015,8.234-5.201,8.234-10.212C376.421,254.909,371.744,250.231,365.975,250.231z"/>
<path fill-rule="evenodd" clip-rule="evenodd" fill="#F36F60" d="M365.975,269.253c4.724,0,8.575-3.853,8.575-8.575
	s-3.852-8.575-8.575-8.575c-4.723,0-8.575,3.853-8.575,8.575S361.252,269.253,365.975,269.253z"/>
<path fill-rule="evenodd" clip-rule="evenodd" fill="#3B97D3" d="M407.171,299.448c-5.77,0-10.446,4.678-10.446,10.447
	c0,5.02,3.54,9.212,8.26,10.217c0.549,0.117,0.523,0.641,0.622,1.231l1.564,9.369l1.566-9.378c0.103-0.614,0.071-1.104,0.646-1.228
	c4.707-1.015,8.234-5.201,8.234-10.212C417.618,304.126,412.941,299.448,407.171,299.448z"/>
<path fill-rule="evenodd" clip-rule="evenodd" fill="#F36F60" d="M407.171,318.471c4.724,0,8.575-3.853,8.575-8.575
	s-3.852-8.575-8.575-8.575c-4.723,0-8.575,3.853-8.575,8.575S402.449,318.471,407.171,318.471z"/>
<path fill-rule="evenodd" clip-rule="evenodd" fill="#3B97D3" d="M428.938,278.554c-5.77,0-10.446,4.678-10.446,10.447
	c0,5.02,3.54,9.212,8.26,10.217c0.549,0.117,0.523,0.641,0.622,1.231l1.564,9.369l1.566-9.378c0.103-0.614,0.071-1.104,0.646-1.228
	c4.707-1.015,8.234-5.201,8.234-10.212C439.384,283.231,434.707,278.554,428.938,278.554z"/>
<path fill-rule="evenodd" clip-rule="evenodd" fill="#F36F60" d="M428.938,297.576c4.724,0,8.575-3.853,8.575-8.575
	s-3.852-8.575-8.575-8.575c-4.723,0-8.575,3.853-8.575,8.575S424.215,297.576,428.938,297.576z"/>
<path fill-rule="evenodd" clip-rule="evenodd" fill="#3B97D3" d="M170.179,400.042c-5.77,0-10.446,4.678-10.446,10.447
	c0,5.02,3.54,9.211,8.26,10.217c0.549,0.117,0.523,0.641,0.622,1.23l1.564,9.369l1.566-9.377c0.103-0.615,0.071-1.104,0.646-1.229
	c4.707-1.014,8.234-5.201,8.234-10.211C180.625,404.72,175.949,400.042,170.179,400.042z"/>
<path fill-rule="evenodd" clip-rule="evenodd" fill="#F36F60" d="M170.179,419.064c4.724,0,8.575-3.852,8.575-8.575
	c0-4.723-3.852-8.575-8.575-8.575c-4.723,0-8.575,3.853-8.575,8.575C161.604,415.213,165.457,419.064,170.179,419.064z"/>
<path fill-rule="evenodd" clip-rule="evenodd" fill="#3B97D3" d="M154.311,429.435c-5.77,0-10.446,4.678-10.446,10.447
	c0,5.02,3.54,9.212,8.26,10.217c0.549,0.117,0.523,0.641,0.622,1.231l1.564,9.369l1.566-9.378c0.103-0.614,0.071-1.104,0.646-1.228
	c4.707-1.015,8.234-5.201,8.234-10.212C164.757,434.112,160.081,429.435,154.311,429.435z"/>
<path fill-rule="evenodd" clip-rule="evenodd" fill="#F36F60" d="M154.311,448.457c4.724,0,8.575-3.853,8.575-8.575
	s-3.852-8.575-8.575-8.575c-4.723,0-8.575,3.853-8.575,8.575S149.588,448.457,154.311,448.457z"/>
<path fill-rule="evenodd" clip-rule="evenodd" fill="#3B97D3" d="M570.945,246.841c-5.77,0-10.446,4.678-10.446,10.447
	c0,5.02,3.54,9.212,8.26,10.217c0.549,0.117,0.523,0.641,0.622,1.231l1.564,9.369l1.566-9.378c0.103-0.614,0.071-1.104,0.646-1.228
	c4.707-1.015,8.234-5.201,8.234-10.212C581.392,251.519,576.715,246.841,570.945,246.841z"/>
<path fill-rule="evenodd" clip-rule="evenodd" fill="#F36F60" d="M570.945,265.863c4.724,0,8.575-3.853,8.575-8.575
	s-3.852-8.575-8.575-8.575c-4.723,0-8.575,3.853-8.575,8.575S566.223,265.863,570.945,265.863z"/>
<path fill-rule="evenodd" clip-rule="evenodd" fill="#3B97D3" d="M733.973,305.489c-5.77,0-10.446,4.678-10.446,10.447
	c0,5.02,3.54,9.212,8.26,10.217c0.549,0.117,0.523,0.641,0.622,1.231l1.564,9.369l1.566-9.378c0.103-0.614,0.071-1.104,0.646-1.228
	c4.707-1.015,8.234-5.201,8.234-10.212C744.419,310.167,739.742,305.489,733.973,305.489z"/>
<path fill-rule="evenodd" clip-rule="evenodd" fill="#F36F60" d="M733.973,324.511c4.724,0,8.575-3.853,8.575-8.575
	s-3.852-8.575-8.575-8.575c-4.723,0-8.575,3.853-8.575,8.575S729.25,324.511,733.973,324.511z"/>
</svg>
