<?xml version="1.0" encoding="iso-8859-1"?>
<!-- Generator: Adobe Illustrator 17.1.0, SVG Export Plug-In . SVG Version: 6.00 Build 0)  -->
<!DOCTYPE svg PUBLIC "-//W3C//DTD SVG 1.1//EN" "http://www.w3.org/Graphics/SVG/1.1/DTD/svg11.dtd">
<svg version="1.1" id="Capa_1" xmlns="http://www.w3.org/2000/svg" xmlns:xlink="http://www.w3.org/1999/xlink" x="0px" y="0px"
	 viewBox="0 0 297.028 297.028" style="enable-background:new 0 0 297.028 297.028;" xml:space="preserve">
<g>
	<path style="fill:#fff;" d="M243.849,44.619h-2.332V19.565c0-4.142-3.357-7.5-7.5-7.5s-7.5,3.358-7.5,7.5v25.054h-10.332V19.565
		c0-4.142-3.357-7.5-7.5-7.5c-4.143,0-7.5,3.358-7.5,7.5v25.054h-2.332c-7.444,0-13.5,6.056-13.5,13.5v35.617
		c0,7.444,6.056,13.5,13.5,13.5h14.998v182.292c0,4.142,3.357,7.5,7.5,7.5c4.143,0,7.5-3.358,7.5-7.5V107.236h14.998
		c7.444,0,13.5-6.056,13.5-13.5V58.119C257.349,50.675,251.294,44.619,243.849,44.619z M242.349,92.236h-41.996V59.619h41.996
		V92.236z"/>
		<path style="fill:#fff;" d="M150.418,35.971h-8.186V13.5c0-7.444-6.056-13.5-13.5-13.5H83.734c-7.444,0-13.5,6.056-13.5,13.5
		v22.471h-8.184c-12.336,0-22.372,10.036-22.372,22.371v216.315c0,12.335,10.036,22.371,22.372,22.371h88.367
		c12.334,0,22.37-10.036,22.37-22.371V58.342C172.788,46.006,162.752,35.971,150.418,35.971z M85.234,15h41.997v20.971H85.234V15z
		 M62.051,50.971h21.684h44.997h21.686c4.063,0,7.37,3.307,7.37,7.371v92.93H54.679v-92.93
		C54.679,54.277,57.986,50.971,62.051,50.971z M150.418,282.028H62.051c-4.064,0-7.372-3.307-7.372-7.371V166.271h103.108v108.386
		C157.787,278.722,154.481,282.028,150.418,282.028z"/>
</g>
<g>
</g>
<g>
</g>
<g>
</g>
<g>
</g>
<g>
</g>
<g>
</g>
<g>
</g>
<g>
</g>
<g>
</g>
<g>
</g>
<g>
</g>
<g>
</g>
<g>
</g>
<g>
</g>
<g>
</g>
</svg>
