<?xml version="1.0" encoding="iso-8859-1"?>
<!-- Generator: Adobe Illustrator 18.1.1, SVG Export Plug-In . SVG Version: 6.00 Build 0)  -->
<svg version="1.1" id="Capa_1" xmlns="http://www.w3.org/2000/svg" xmlns:xlink="http://www.w3.org/1999/xlink" x="0px" y="0px"
	viewBox="0 0 591.396 591.396" style="enable-background:new 0 0 591.396 591.396;" xml:space="preserve">
	<g>
		<g>
			<path style="fill:#fff;" d="M495.208,430.032L298.756,295.596L495.208,161.16c2.856-1.836,4.488-5.1,4.488-8.364c0-3.264-1.632-6.528-4.284-8.364
				l-204-142.8l0,0c-0.408-0.204-0.816-0.408-1.224-0.612c-0.204,0-0.408-0.204-0.612-0.204c-0.204-0.204-0.612-0.204-1.02-0.408
				c-0.408,0-0.612-0.204-1.02-0.204c-0.204,0-0.408,0-0.612,0c-0.408,0-1.02-0.204-1.428-0.204l0,0c-0.204,0-0.408,0-0.612,0
				c-0.408,0-0.816,0-1.224,0.204c-0.408,0-0.612,0.204-1.02,0.204s-0.612,0.204-1.02,0.204c-0.408,0.204-0.612,0.204-0.816,0.408
				c-0.204,0.204-0.612,0.204-0.816,0.408c-0.204,0.204-0.612,0.408-0.816,0.612c-0.204,0.204-0.612,0.408-0.816,0.612
				c-0.204,0.204-0.612,0.612-0.816,1.02c-0.204,0.204-0.408,0.204-0.612,0.408l0,0c-0.204,0.408-0.408,0.816-0.612,1.224
				c0,0.204-0.204,0.408-0.204,0.612c-0.204,0.408-0.204,0.612-0.408,1.02c0,0.408-0.204,0.612-0.204,1.02c0,0.204,0,0.408,0,0.612
				c0,0.408-0.204,1.02-0.204,1.428l0,0V279.48L107.608,164.832c-4.692-3.264-11.016-2.04-14.076,2.652
				c-3.264,4.692-2.04,11.016,2.652,14.076l166.668,114.036L96.184,409.632c-4.692,3.264-5.916,9.588-2.652,14.28
				c2.04,2.856,5.1,4.488,8.364,4.488c2.04,0,4.08-0.612,5.712-1.836l167.688-114.648v269.28l0,0c0,0.408,0,1.02,0.204,1.428
				c0,0.204,0,0.408,0,0.612c0,0.408,0.204,0.612,0.204,1.02s0.204,0.612,0.408,1.02c0,0.204,0.204,0.408,0.204,0.612
				c0.204,0.408,0.408,0.816,0.612,1.224l0,0c0.408,0.408,0.612,0.816,1.02,1.224l0.204,0.204c0.816,0.816,1.836,1.428,2.856,2.04
				c0.204,0,0.204,0.204,0.408,0.204c0.612,0.204,1.02,0.408,1.632,0.408c0.204,0,0.204,0,0.408,0
				c0.612,0.204,1.224,0.204,1.836,0.204l0,0l0,0l0,0c0.612,0,1.224,0,1.836-0.204c0.204,0,0.408,0,0.612-0.204
				c0.408,0,0.816-0.204,1.224-0.408c0.204,0,0.408-0.204,0.612-0.204c0.408-0.204,0.816-0.408,1.224-0.612
				c0.204,0,0.204-0.204,0.408-0.204l0,0l204-142.8c2.652-1.836,4.284-5.1,4.284-8.364
				C499.492,434.928,497.86,431.868,495.208,430.032z M295.492,272.952V29.58L471.34,152.796L295.492,272.952z M295.492,561.612
				V318.24L471.34,438.6L295.492,561.612z"/>
				<path style="fill:#fff;" d="M308.14,64.872l131.988,92.412c0.816,0.612,1.836,1.02,2.856,1.02c1.632,0,3.264-0.816,4.08-2.244
					c1.632-2.244,1.02-5.508-1.224-7.14L313.852,56.508c-2.244-1.632-5.508-1.02-7.14,1.224
					C305.284,59.976,305.692,63.24,308.14,64.872z"/>
					<path style="fill:#fff;" d="M308.14,348.636l131.988,92.412c0.816,0.612,1.836,1.02,2.856,1.02c1.632,0,3.264-0.816,4.08-2.244
						c1.632-2.244,1.02-5.508-1.224-7.14l-131.988-92.412c-2.244-1.632-5.508-1.02-7.14,1.224
						C305.284,343.74,305.692,347.004,308.14,348.636z"/>
					</g>
				</g>
				<g>
				</g>
				<g>
				</g>
				<g>
				</g>
				<g>
				</g>
				<g>
				</g>
				<g>
				</g>
				<g>
				</g>
				<g>
				</g>
				<g>
				</g>
				<g>
				</g>
				<g>
				</g>
				<g>
				</g>
				<g>
				</g>
				<g>
				</g>
				<g>
				</g>
			</svg>
