<?xml version="1.0" encoding="utf-8"?>
<!-- Generator: Adobe Illustrator 16.0.0, SVG Export Plug-In . SVG Version: 6.00 Build 0)  -->
<!DOCTYPE svg PUBLIC "-//W3C//DTD SVG 1.1//EN" "http://www.w3.org/Graphics/SVG/1.1/DTD/svg11.dtd">
<svg version="1.1" id="Layer_1" xmlns="http://www.w3.org/2000/svg" xmlns:xlink="http://www.w3.org/1999/xlink" x="0px" y="0px"
	 width="40px" height="40px" viewBox="0 0 40 40" enable-background="new 0 0 40 40" xml:space="preserve">
<g>
	<defs>
		<path id="SVGID_1_" d="M16.148,27.421c-0.001-0.007-0.001-0.013-0.001-0.019c-0.377,0.019-0.757,0.012-1.129,0.063
			c-0.774,0.106-1.302,0.545-1.566,1.282c-0.211,0.592-0.281,1.206-0.196,1.831c0.069,0.503,0.304,0.911,0.747,1.184
			c0.31,0.192,0.656,0.241,1.009,0.248c0.516,0.008,1.033,0.003,1.548,0.001c0.168,0,0.251-0.087,0.26-0.257
			c0.007-0.107,0.013-0.216,0.022-0.323c0.018-0.215-0.039-0.278-0.258-0.278c-0.417,0-0.835,0.001-1.252-0.001
			c-0.125-0.001-0.25-0.007-0.373-0.023c-0.353-0.048-0.575-0.258-0.623-0.611c-0.027-0.2-0.039-0.406-0.019-0.606
			c0.026-0.285,0.064-0.574,0.139-0.851c0.149-0.541,0.507-0.793,1.067-0.793c0.458,0,0.915,0,1.372-0.001
			c0.125,0,0.222-0.07,0.237-0.179c0.02-0.151,0.034-0.3,0.042-0.452c0.008-0.155-0.056-0.215-0.209-0.215
			C16.694,27.419,16.42,27.421,16.148,27.421z M18.967,32.013c0.356,0,0.712,0.006,1.066-0.002c0.215-0.006,0.432-0.02,0.645-0.059
			c0.557-0.104,0.938-0.415,1.057-0.988c0.044-0.223,0.054-0.455,0.058-0.683c0.005-0.451-0.245-0.78-0.683-0.882
			c-0.215-0.05-0.44-0.073-0.661-0.079c-0.458-0.013-0.914,0-1.371-0.007c-0.177-0.002-0.343-0.045-0.429-0.225
			c-0.107-0.217,0.001-0.573,0.208-0.701c0.149-0.093,0.319-0.118,0.49-0.118c0.688-0.005,1.375-0.002,2.061-0.002
			c0.177,0,0.261-0.083,0.269-0.255c0.005-0.118,0.01-0.237,0.021-0.354c0.016-0.173-0.043-0.238-0.214-0.238
			c-0.771,0-1.544-0.004-2.317,0.002c-0.18,0.001-0.36,0.024-0.535,0.062c-0.429,0.094-0.756,0.324-0.926,0.747
			c-0.13,0.324-0.161,0.663-0.127,1.006c0.043,0.447,0.29,0.75,0.724,0.875c0.177,0.05,0.366,0.078,0.552,0.085
			c0.511,0.017,1.024,0.012,1.537,0.023c0.253,0.007,0.36,0.129,0.359,0.382c0,0.023,0,0.046-0.001,0.069
			c-0.014,0.229-0.135,0.389-0.356,0.439c-0.156,0.035-0.317,0.054-0.477,0.056c-0.708,0.006-1.414,0.002-2.121,0.002
			c-0.139,0-0.21,0.052-0.23,0.191c-0.019,0.137-0.027,0.273-0.032,0.411c-0.006,0.181,0.056,0.24,0.24,0.24
			C18.172,32.013,18.57,32.013,18.967,32.013z M25.56,30.107c0.046-0.016,0.08-0.032,0.117-0.043
			c0.353-0.113,0.601-0.344,0.752-0.677c0.15-0.325,0.169-0.669,0.135-1.016c-0.044-0.419-0.276-0.715-0.684-0.842
			c-0.195-0.061-0.403-0.102-0.605-0.106c-0.786-0.011-1.573-0.003-2.358-0.003c-0.15,0-0.232,0.064-0.245,0.211
			c-0.026,0.267-0.044,0.536-0.065,0.805c-0.021,0.267-0.04,0.536-0.063,0.804c-0.028,0.375-0.063,0.751-0.095,1.126
			c-0.016,0.194-0.037,0.386-0.053,0.579c-0.023,0.283-0.047,0.567-0.063,0.852c-0.01,0.14,0.061,0.211,0.198,0.215
			c0.186,0.003,0.373,0.003,0.562,0c0.131-0.004,0.203-0.068,0.223-0.201c0.02-0.114,0.027-0.229,0.037-0.342
			c0.031-0.386,0.066-0.771,0.096-1.158c0.004-0.073,0.033-0.092,0.103-0.091c0.299,0.002,0.599,0.003,0.899-0.001
			c0.08-0.003,0.119,0.026,0.155,0.099c0.226,0.485,0.46,0.966,0.686,1.452c0.079,0.168,0.202,0.248,0.39,0.244
			c0.191-0.006,0.386,0,0.582-0.001c0.188-0.001,0.233-0.072,0.146-0.239c-0.213-0.421-0.43-0.842-0.646-1.263
			C25.696,30.38,25.63,30.25,25.56,30.107z M19.877,6.72h-6.542H3.123c-0.227,0-0.437,0.053-0.619,0.193
			c-0.366,0.284-0.539,0.669-0.54,1.122c-0.004,4.529-0.001,9.058-0.001,13.586c0,0.047,0.002,0.092,0.013,0.138
			c0.083,0.39,0.303,0.702,0.572,0.983c0.362,0.375,0.791,0.66,1.247,0.907c0.829,0.448,1.709,0.757,2.614,1.008
			c0.944,0.262,1.903,0.463,2.872,0.611c0.586,0.089,1.173,0.174,1.76,0.251c0.406,0.052,0.814,0.085,1.222,0.123
			c0.43,0.042,0.86,0.082,1.292,0.115c0.402,0.031,0.805,0.056,1.207,0.078c0.422,0.023,0.845,0.043,1.268,0.061
			c0.396,0.016,0.794,0.028,1.189,0.039c0.32,0.009,0.638,0.021,0.956,0.019c1.131-0.003,2.262-0.006,3.394-0.017
			c0.496-0.006,0.996-0.024,1.496-0.038c0.313-0.011,0.628-0.025,0.944-0.04c0.35-0.018,0.699-0.037,1.049-0.061
			c0.443-0.028,0.884-0.061,1.322-0.098c0.403-0.035,0.803-0.072,1.206-0.119c0.517-0.059,1.039-0.12,1.556-0.198
			c0.569-0.084,1.134-0.176,1.696-0.282c0.91-0.175,1.812-0.396,2.696-0.686c0.923-0.302,1.817-0.667,2.641-1.194
			c0.497-0.319,0.952-0.693,1.297-1.18c0.239-0.342,0.372-0.709,0.37-1.139c-0.008-4.236-0.005-8.474-0.002-12.709
			c0-0.224-0.043-0.438-0.124-0.643c-0.174-0.428-0.518-0.837-1.215-0.836C30.961,6.726,25.419,6.72,19.877,6.72z M19.875,6.283
			c5.552,0,11.104,0.002,16.657-0.003c0.747-0.001,1.238,0.36,1.549,1.01c0.134,0.284,0.197,0.589,0.197,0.905
			c-0.002,4.056-0.002,8.111-0.002,12.167c0.002,2.292,0.002,4.585,0.002,6.876c0,0.319-0.01,0.638,0,0.958
			c0.012,0.358-0.095,0.68-0.263,0.986c-0.34,0.62-0.851,1.079-1.426,1.476c-0.808,0.555-1.699,0.94-2.62,1.26
			c-1.054,0.365-2.133,0.634-3.227,0.831c-0.673,0.122-1.349,0.231-2.026,0.331c-0.472,0.069-0.948,0.113-1.425,0.164
			c-0.472,0.048-0.943,0.095-1.417,0.134c-0.337,0.029-0.677,0.042-1.012,0.062c-0.435,0.027-0.871,0.054-1.305,0.076
			c-0.245,0.013-0.486,0.017-0.729,0.021c-0.351,0.009-0.697,0.019-1.045,0.023c-1.25,0.006-2.499,0.015-3.748,0.014
			c-0.477,0-0.953-0.021-1.429-0.038c-0.442-0.017-0.885-0.036-1.327-0.06c-0.418-0.022-0.837-0.048-1.256-0.079
			c-0.533-0.04-1.065-0.079-1.596-0.14c-0.784-0.09-1.568-0.18-2.348-0.296c-1.229-0.186-2.447-0.434-3.64-0.786
			c-0.791-0.232-1.567-0.511-2.307-0.877c-0.745-0.368-1.443-0.802-1.996-1.436c-0.289-0.332-0.52-0.696-0.602-1.137
			c-0.009-0.055-0.01-0.11-0.01-0.166c-0.002-2.254-0.003-4.506-0.003-6.76c0-4.586-0.001-9.175,0.005-13.762
			c0-0.643,0.26-1.172,0.805-1.539C2.562,6.348,2.819,6.284,3.09,6.284C8.686,6.283,14.279,6.283,19.875,6.283z"/>
	</defs>
	<clipPath id="SVGID_2_">
		<use xlink:href="#SVGID_1_"  overflow="visible"/>
	</clipPath>
	<rect x="1.112" y="5.868" clip-path="url(#SVGID_2_)" fill="#FFFFFF" width="37.577" height="28.118"/>
</g>
<g>
	<defs>
		<path id="SVGID_3_" d="M27.278,14.741c0.034,0.028,0.056,0.04,0.071,0.056c0.389,0.377,0.798,0.739,1.162,1.139
			c0.658,0.715,1.293,1.455,1.937,2.182c0.08,0.09,0.175,0.168,0.272,0.24c0.079,0.056,0.177,0.093,0.267,0.025
			c0.089-0.068,0.07-0.177,0.039-0.266c-0.053-0.147-0.116-0.292-0.191-0.428c-0.624-1.128-1.402-2.144-2.238-3.12
			c-0.185-0.214-0.374-0.423-0.565-0.641c0.202-0.218,0.404-0.429,0.597-0.648c0.552-0.625,1.106-1.25,1.651-1.883
			c0.098-0.112,0.169-0.25,0.232-0.385c0.022-0.05,0.013-0.157-0.024-0.185c-0.046-0.035-0.144-0.037-0.197-0.011
			c-0.108,0.052-0.209,0.126-0.298,0.207c-0.698,0.628-1.396,1.26-2.093,1.891c-0.147,0.133-0.297,0.266-0.447,0.4
			c-0.019-0.017-0.031-0.027-0.041-0.039c-0.675-0.695-1.373-1.363-2.118-1.981c-0.447-0.375-0.965-0.55-1.555-0.479
			c-0.208,0.024-0.406,0.08-0.505,0.303c-0.14,0.324-0.099,0.629,0.101,0.914c0.168,0.242,0.41,0.396,0.67,0.521
			c0.671,0.32,1.313,0.688,1.923,1.116c0.205,0.144,0.408,0.294,0.613,0.444c-0.021,0.021-0.033,0.03-0.04,0.038
			c-0.696,0.597-1.412,1.17-2.183,1.671c-0.357,0.232-0.603,0.552-0.65,0.99c-0.022,0.229-0.013,0.459,0.161,0.637
			c0.415,0.426,1.088,0.339,1.444-0.165c0.339-0.48,0.688-0.955,1.051-1.416C26.627,15.483,26.955,15.121,27.278,14.741z
			 M27.084,9.865h4.321c0.209,0,0.286,0.077,0.286,0.283c0,2.892,0,5.782,0,8.672c0,0.195-0.081,0.279-0.273,0.279
			c-2.898,0-5.794,0-8.691,0c-0.18,0-0.27-0.088-0.27-0.266c0-2.9,0-5.801,0-8.702c0-0.18,0.088-0.266,0.267-0.266
			C24.178,9.865,25.63,9.865,27.084,9.865z"/>
	</defs>
	<clipPath id="SVGID_4_">
		<use xlink:href="#SVGID_3_"  overflow="visible"/>
	</clipPath>
	<rect x="22.047" y="9.454" clip-path="url(#SVGID_4_)" fill="#FFFFFF" width="10.058" height="10.056"/>
</g>
<g>
	<defs>
		<path id="SVGID_5_" d="M7.783,14.797v-0.02c-0.269,0-0.54-0.008-0.807,0.002c-0.181,0.007-0.36,0.024-0.537,0.061
			c-0.252,0.054-0.373,0.208-0.388,0.465c-0.005,0.111-0.005,0.222,0,0.333c0.014,0.255,0.126,0.407,0.379,0.462
			c0.197,0.042,0.401,0.07,0.602,0.073c0.575,0.005,1.15,0,1.724-0.016c0.239-0.006,0.479-0.032,0.702-0.13
			c0.161-0.07,0.265-0.187,0.278-0.363c0.009-0.121,0.006-0.244-0.003-0.365c-0.016-0.191-0.123-0.33-0.3-0.388
			c-0.167-0.055-0.344-0.102-0.516-0.109C8.54,14.787,8.161,14.797,7.783,14.797z M9.728,14.696c0-0.328,0.015-0.646-0.005-0.963
			c-0.015-0.244-0.165-0.417-0.397-0.49c-0.162-0.05-0.331-0.092-0.5-0.097c-0.585-0.016-1.171-0.019-1.755-0.018
			c-0.146,0-0.295,0.022-0.438,0.055c-0.226,0.053-0.422,0.17-0.4,0.508c0.002,0.033,0,0.065,0,0.103
			c-0.022,0.004-0.042,0.011-0.06,0.011c-0.18,0-0.361-0.001-0.541,0.001c-0.06,0.002-0.087-0.016-0.082-0.078
			c0.012-0.133,0.01-0.269,0.032-0.402c0.047-0.278,0.22-0.462,0.473-0.575c0.225-0.103,0.464-0.154,0.708-0.157
			c0.708-0.009,1.419-0.012,2.129,0.003c0.235,0.005,0.478,0.056,0.705,0.125c0.518,0.154,0.81,0.527,0.816,1.068
			c0.014,0.947,0.004,1.895,0.004,2.841c0,0.007-0.002,0.012-0.006,0.028H9.744v-0.401c-0.206,0.375-0.542,0.444-0.893,0.451
			c-0.75,0.013-1.499,0.018-2.25,0.015c-0.182-0.001-0.367-0.03-0.543-0.075c-0.359-0.091-0.577-0.329-0.648-0.692
			c-0.063-0.322-0.064-0.648-0.019-0.972c0.043-0.304,0.22-0.513,0.512-0.62c0.319-0.115,0.655-0.135,0.99-0.136
			c0.572-0.004,1.145-0.008,1.716,0.002c0.198,0.004,0.398,0.039,0.595,0.078c0.201,0.039,0.359,0.158,0.477,0.326
			C9.695,14.654,9.711,14.675,9.728,14.696z"/>
	</defs>
	<clipPath id="SVGID_6_">
		<use xlink:href="#SVGID_5_"  overflow="visible"/>
	</clipPath>
	<rect x="4.949" y="12.175" clip-path="url(#SVGID_6_)" fill="#FFFFFF" width="5.881" height="4.96"/>
</g>
<g>
	<defs>
		<path id="SVGID_7_" d="M13.566,16.162L13.566,16.162c0.323,0,0.645,0.013,0.965-0.002c0.544-0.028,0.854-0.329,0.879-0.871
			c0.02-0.436,0.017-0.874-0.004-1.31c-0.016-0.346-0.17-0.629-0.521-0.752c-0.126-0.044-0.262-0.081-0.393-0.083
			c-0.617-0.009-1.235-0.019-1.851,0c-0.6,0.017-0.988,0.434-1.001,1.037c-0.007,0.299-0.005,0.598-0.005,0.897
			c0.001,0.239,0.035,0.472,0.17,0.677c0.19,0.288,0.487,0.384,0.806,0.403C12.929,16.176,13.249,16.162,13.566,16.162z
			 M11.633,16.159v1.906H10.96v-5.414h0.625v0.619c0.023-0.019,0.033-0.023,0.036-0.029c0.19-0.395,0.538-0.56,0.943-0.629
			c0.163-0.027,0.333-0.035,0.499-0.035c0.494,0,0.987,0.002,1.479,0.015c0.255,0.006,0.501,0.063,0.735,0.167
			c0.49,0.216,0.742,0.614,0.796,1.124c0.057,0.539,0.066,1.085-0.012,1.623c-0.098,0.679-0.486,1.06-1.173,1.163
			c-0.246,0.037-0.497,0.055-0.745,0.06c-0.486,0.008-0.973,0.007-1.46-0.005c-0.17-0.005-0.345-0.038-0.513-0.081
			c-0.231-0.062-0.397-0.212-0.489-0.437c-0.006-0.017-0.016-0.032-0.025-0.05C11.647,16.157,11.642,16.159,11.633,16.159z"/>
	</defs>
	<clipPath id="SVGID_8_">
		<use xlink:href="#SVGID_7_"  overflow="visible"/>
	</clipPath>
	<rect x="10.55" y="12.166" clip-path="url(#SVGID_8_)" fill="#FFFFFF" width="5.979" height="6.311"/>
</g>
<g>
	<defs>
		<path id="SVGID_9_" d="M17.049,13.194H16.17v-0.55h0.879v-0.952h0.672v0.956h1.353h1.338v0.55h-1.341h-1.343
			c-0.002,0.04-0.006,0.074-0.006,0.108c0,0.655-0.004,1.31,0.004,1.964c0.001,0.152,0.029,0.308,0.071,0.454
			c0.078,0.27,0.291,0.408,0.549,0.425c0.355,0.024,0.717,0.033,1.07-0.004c0.38-0.04,0.535-0.249,0.552-0.645
			c0.008-0.213,0.002-0.426,0.002-0.655c0.188,0,0.354-0.001,0.519,0.003c0.016,0,0.042,0.033,0.042,0.051
			c-0.003,0.358,0.028,0.717-0.057,1.069c-0.093,0.38-0.351,0.599-0.718,0.678c-0.606,0.13-1.222,0.141-1.828,0.002
			c-0.579-0.134-0.878-0.538-0.88-1.135c-0.002-0.729-0.001-1.459-0.001-2.189C17.049,13.286,17.049,13.248,17.049,13.194z"/>
	</defs>
	<clipPath id="SVGID_10_">
		<use xlink:href="#SVGID_9_"  overflow="visible"/>
	</clipPath>
	<rect x="15.76" y="11.282" clip-path="url(#SVGID_10_)" fill="#FFFFFF" width="5.188" height="5.877"/>
</g>
<g>
	<defs>
		<path id="SVGID_11_" d="M14.63,19.966c0.125,0,0.24-0.004,0.355,0.004c0.023,0.001,0.058,0.044,0.066,0.075
			c0.094,0.375,0.186,0.75,0.278,1.125c0.007,0.029,0.018,0.056,0.033,0.112c0.096-0.454,0.184-0.878,0.275-1.316
			c0.128,0,0.256-0.003,0.383,0.004c0.021,0.001,0.05,0.046,0.055,0.075c0.083,0.388,0.162,0.777,0.242,1.167
			c0.003,0.009,0.006,0.018,0.031,0.031c0.104-0.421,0.208-0.842,0.315-1.271h0.401c-0.054,0.188-0.105,0.372-0.158,0.557
			c-0.119,0.408-0.239,0.817-0.355,1.228c-0.02,0.067-0.047,0.101-0.122,0.093c-0.093-0.01-0.218,0.023-0.274-0.024
			c-0.058-0.049-0.053-0.175-0.072-0.269c-0.075-0.365-0.149-0.731-0.246-1.1c-0.025,0.114-0.05,0.23-0.074,0.346
			c-0.067,0.323-0.134,0.647-0.198,0.973c-0.011,0.055-0.036,0.078-0.093,0.074c-0.098-0.008-0.22,0.025-0.287-0.021
			c-0.062-0.043-0.067-0.169-0.094-0.26c-0.148-0.507-0.296-1.013-0.444-1.519C14.642,20.027,14.64,20.004,14.63,19.966z"/>
	</defs>
	<clipPath id="SVGID_12_">
		<use xlink:href="#SVGID_11_"  overflow="visible"/>
	</clipPath>
	<rect x="14.22" y="19.553" clip-path="url(#SVGID_12_)" fill="#FFFFFF" width="3.254" height="2.714"/>
</g>
<g>
	<defs>
		<path id="SVGID_13_" d="M26.289,20.602v1.236h-0.375v-1.871c0.126,0,0.252-0.004,0.378,0.004c0.026,0.001,0.053,0.043,0.072,0.072
			c0.218,0.36,0.433,0.72,0.649,1.081c0.018,0.032,0.039,0.064,0.079,0.09v-1.242h0.383v1.876c-0.126,0-0.247,0.004-0.368-0.005
			c-0.026-0.002-0.059-0.037-0.073-0.064c-0.224-0.367-0.446-0.736-0.668-1.104c-0.019-0.026-0.037-0.053-0.054-0.08
			C26.306,20.597,26.298,20.599,26.289,20.602z"/>
	</defs>
	<clipPath id="SVGID_14_">
		<use xlink:href="#SVGID_13_"  overflow="visible"/>
	</clipPath>
	<rect x="25.504" y="19.554" clip-path="url(#SVGID_14_)" fill="#FFFFFF" width="2.382" height="2.705"/>
</g>
<g>
	<defs>
		<path id="SVGID_15_" d="M12.87,20.904c0.017,0.104,0.025,0.21,0.055,0.309c0.07,0.229,0.251,0.354,0.486,0.354
			c0.242,0.002,0.426-0.126,0.499-0.354c0.063-0.199,0.064-0.401,0.003-0.601c-0.075-0.237-0.254-0.366-0.501-0.364
			c-0.24,0.001-0.417,0.126-0.487,0.364C12.896,20.706,12.887,20.806,12.87,20.904z M14.349,20.858
			c0.005,0.368-0.076,0.655-0.338,0.854c-0.306,0.236-0.653,0.252-0.999,0.113c-0.334-0.132-0.484-0.411-0.523-0.762
			c-0.021-0.191-0.01-0.381,0.053-0.562c0.159-0.457,0.56-0.639,1.013-0.581C14.073,19.99,14.349,20.343,14.349,20.858z"/>
	</defs>
	<clipPath id="SVGID_16_">
		<use xlink:href="#SVGID_15_"  overflow="visible"/>
	</clipPath>
	<rect x="12.068" y="19.499" clip-path="url(#SVGID_16_)" fill="#FFFFFF" width="2.693" height="2.824"/>
</g>
<g>
	<defs>
		<polygon id="SVGID_17_" points="23.962,21.84 23.962,19.973 25.347,19.973 25.347,20.28 24.354,20.28 24.354,20.694 
			25.256,20.694 25.256,21.013 24.35,21.013 24.35,21.498 25.388,21.498 25.388,21.84 		"/>
	</defs>
	<clipPath id="SVGID_18_">
		<use xlink:href="#SVGID_17_"  overflow="visible"/>
	</clipPath>
	<rect x="23.55" y="19.561" clip-path="url(#SVGID_18_)" fill="#FFFFFF" width="2.25" height="2.689"/>
</g>
<g>
	<defs>
		<path id="SVGID_19_" d="M29.374,21.204h0.372c-0.003,0.169-0.058,0.312-0.167,0.433c-0.339,0.385-1.082,0.356-1.391-0.054
			c-0.104-0.141-0.152-0.302-0.174-0.475c-0.026-0.201-0.019-0.4,0.04-0.595c0.105-0.372,0.396-0.593,0.807-0.597
			c0.15-0.001,0.311,0.017,0.452,0.062c0.27,0.083,0.416,0.309,0.426,0.605c-0.115,0-0.23,0.001-0.346-0.001
			c-0.016,0-0.034-0.02-0.04-0.036c-0.139-0.276-0.368-0.364-0.647-0.246c-0.157,0.068-0.238,0.198-0.276,0.361
			c-0.047,0.208-0.044,0.417,0.045,0.617c0.074,0.167,0.206,0.259,0.39,0.273c0.182,0.013,0.343-0.027,0.441-0.193
			C29.335,21.311,29.354,21.256,29.374,21.204z"/>
	</defs>
	<clipPath id="SVGID_20_">
		<use xlink:href="#SVGID_19_"  overflow="visible"/>
	</clipPath>
	<rect x="27.589" y="19.504" clip-path="url(#SVGID_20_)" fill="#FFFFFF" width="2.567" height="2.815"/>
</g>
<g>
	<defs>
		<path id="SVGID_21_" d="M21.254,21.145c-0.091-0.27-0.175-0.522-0.259-0.774c-0.006,0.001-0.014,0.001-0.021,0.002
			c-0.083,0.255-0.167,0.509-0.252,0.772H21.254z M20.077,21.849c0.08-0.224,0.154-0.427,0.228-0.63
			c0.14-0.389,0.281-0.777,0.417-1.166c0.023-0.066,0.056-0.097,0.127-0.088c0.032,0.004,0.066,0.002,0.098,0.002
			c0.27,0,0.27,0,0.359,0.247c0.184,0.501,0.366,1.003,0.55,1.505c0.014,0.038,0.026,0.079,0.043,0.13
			c-0.13,0-0.248,0.002-0.367-0.003c-0.02-0.002-0.049-0.035-0.06-0.06c-0.034-0.082-0.061-0.166-0.087-0.25
			c-0.014-0.051-0.033-0.076-0.095-0.075c-0.204,0.005-0.407-0.001-0.611,0.005c-0.028,0.001-0.068,0.032-0.08,0.058
			c-0.037,0.089-0.061,0.181-0.095,0.271c-0.009,0.022-0.036,0.05-0.056,0.052C20.332,21.85,20.214,21.849,20.077,21.849z"/>
	</defs>
	<clipPath id="SVGID_22_">
		<use xlink:href="#SVGID_21_"  overflow="visible"/>
	</clipPath>
	<rect x="19.666" y="19.552" clip-path="url(#SVGID_22_)" fill="#FFFFFF" width="2.643" height="2.707"/>
</g>
<g>
	<defs>
		<path id="SVGID_23_" d="M34.146,11.025c0-0.496-0.364-0.872-0.838-0.87c-0.468,0-0.834,0.381-0.834,0.865
			c0,0.491,0.375,0.867,0.858,0.864C33.79,11.881,34.146,11.507,34.146,11.025z M33.319,9.941c0.628,0,1.1,0.461,1.1,1.078
			c0,0.615-0.481,1.09-1.107,1.089c-0.621,0-1.109-0.48-1.109-1.09C32.202,10.406,32.684,9.941,33.319,9.941z"/>
	</defs>
	<clipPath id="SVGID_24_">
		<use xlink:href="#SVGID_23_"  overflow="visible"/>
	</clipPath>
	<rect x="31.792" y="9.529" clip-path="url(#SVGID_24_)" fill="#FFFFFF" width="3.039" height="2.99"/>
</g>
<g>
	<defs>
		<path id="SVGID_25_" d="M31.124,21.842h-0.393c0-0.104-0.011-0.21,0.004-0.311c0.031-0.272-0.048-0.504-0.199-0.729
			c-0.159-0.237-0.291-0.49-0.436-0.737c-0.016-0.025-0.029-0.055-0.053-0.098c0.157,0,0.301-0.004,0.441,0.003
			c0.027,0.001,0.056,0.041,0.071,0.068c0.108,0.211,0.214,0.422,0.318,0.632c0.014,0.029,0.029,0.058,0.053,0.103
			c0.09-0.189,0.187-0.358,0.244-0.538c0.074-0.222,0.201-0.317,0.432-0.271c0.042,0.008,0.088,0.002,0.15,0.002
			c-0.088,0.161-0.163,0.309-0.243,0.456c-0.109,0.205-0.215,0.413-0.328,0.616c-0.048,0.084-0.066,0.166-0.066,0.261
			C31.126,21.477,31.124,21.652,31.124,21.842z"/>
	</defs>
	<clipPath id="SVGID_26_">
		<use xlink:href="#SVGID_25_"  overflow="visible"/>
	</clipPath>
	<rect x="29.635" y="19.542" clip-path="url(#SVGID_26_)" fill="#FFFFFF" width="2.533" height="2.711"/>
</g>
<g>
	<defs>
		<polygon id="SVGID_27_" points="23.519,19.974 23.519,20.296 22.965,20.296 22.965,21.84 22.57,21.84 22.57,20.3 22.008,20.3 
			22.008,19.974 		"/>
	</defs>
	<clipPath id="SVGID_28_">
		<use xlink:href="#SVGID_27_"  overflow="visible"/>
	</clipPath>
	<rect x="21.598" y="19.564" clip-path="url(#SVGID_28_)" fill="#FFFFFF" width="2.33" height="2.686"/>
</g>
<g>
	<defs>
		<path id="SVGID_29_" d="M18.849,19.975v0.121v1.283c0,0.126,0,0.126,0.13,0.126c0.266,0,0.532,0,0.805,0v0.336h-1.321v-1.866
			C18.586,19.975,18.708,19.975,18.849,19.975z"/>
	</defs>
	<clipPath id="SVGID_30_">
		<use xlink:href="#SVGID_29_"  overflow="visible"/>
	</clipPath>
	<rect x="18.051" y="19.564" clip-path="url(#SVGID_30_)" fill="#FFFFFF" width="2.143" height="2.687"/>
</g>
<g>
	<defs>
		<path id="SVGID_31_" d="M12.229,21.505v0.335h-1.315v-1.866h0.385v0.105c0,0.437,0.003,0.875-0.001,1.311
			c-0.001,0.087,0.019,0.12,0.113,0.118C11.68,21.501,11.949,21.505,12.229,21.505z"/>
	</defs>
	<clipPath id="SVGID_32_">
		<use xlink:href="#SVGID_31_"  overflow="visible"/>
	</clipPath>
	<rect x="10.504" y="19.562" clip-path="url(#SVGID_32_)" fill="#FFFFFF" width="2.135" height="2.688"/>
</g>
<g>
	<defs>
		<path id="SVGID_33_" d="M24.359,28.282c0.247,0,0.492-0.012,0.739,0.002c0.409,0.024,0.529,0.274,0.438,0.667
			c-0.053,0.234-0.228,0.381-0.507,0.401c-0.269,0.018-0.54,0.017-0.807,0.022c-0.194,0.002-0.387-0.006-0.582,0.002
			c-0.098,0.004-0.119-0.033-0.111-0.118c0.029-0.311,0.054-0.623,0.078-0.933c0.007-0.062,0.046-0.06,0.091-0.06
			c0.22,0,0.439,0,0.66,0C24.359,28.271,24.359,28.276,24.359,28.282z"/>
	</defs>
	<clipPath id="SVGID_34_">
		<use xlink:href="#SVGID_33_"  overflow="visible"/>
	</clipPath>
	<rect x="23.118" y="27.855" clip-path="url(#SVGID_34_)" fill="#FFFFFF" width="2.859" height="1.933"/>
</g>
<g>
	<defs>
		<path id="SVGID_35_" d="M33.16,10.648v0.333c0.086-0.01,0.167-0.013,0.245-0.03c0.073-0.016,0.116-0.067,0.114-0.14
			c-0.002-0.077-0.046-0.133-0.122-0.145C33.323,10.652,33.242,10.654,33.16,10.648z M33.566,11.043
			c0.226,0.119,0.175,0.353,0.266,0.53c-0.025,0.003-0.04,0.007-0.052,0.005c-0.251-0.007-0.208,0.055-0.279-0.208
			c-0.052-0.203-0.127-0.249-0.353-0.212v0.415h-0.247V10.5c0.215-0.033,0.429-0.061,0.645-0.01
			c0.146,0.035,0.227,0.124,0.238,0.251C33.799,10.883,33.751,10.952,33.566,11.043z"/>
	</defs>
	<clipPath id="SVGID_36_">
		<use xlink:href="#SVGID_35_"  overflow="visible"/>
	</clipPath>
	<rect x="32.491" y="10.051" clip-path="url(#SVGID_36_)" fill="#FFFFFF" width="1.752" height="1.941"/>
</g>
<g>
</g>
<g>
</g>
<g>
</g>
<g>
</g>
<g>
</g>
<g>
</g>
</svg>
