<?xml version="1.0" encoding="iso-8859-1"?>
<!-- Generator: Adobe Illustrator 17.1.0, SVG Export Plug-In . SVG Version: 6.00 Build 0)  -->
<!DOCTYPE svg PUBLIC "-//W3C//DTD SVG 1.1//EN" "http://www.w3.org/Graphics/SVG/1.1/DTD/svg11.dtd">
<svg version="1.1" id="Capa_1" xmlns="http://www.w3.org/2000/svg" xmlns:xlink="http://www.w3.org/1999/xlink" x="0px" y="0px"
	 viewBox="0 0 290.19 290.19" style="enable-background:new 0 0 290.19 290.19;" xml:space="preserve">
<g>
	<path style="fill:#fff;" d="M130.26,56.989c4.142,0,7.5-3.358,7.5-7.5v-9c0-4.142-3.358-7.5-7.5-7.5c-4.142,0-7.5,3.358-7.5,7.5
		v9C122.76,53.631,126.118,56.989,130.26,56.989z"/>
		<path style="fill:#fff;" d="M156.927,56.989c4.142,0,7.5-3.358,7.5-7.5v-9c0-4.142-3.358-7.5-7.5-7.5
		c-4.142,0-7.5,3.358-7.5,7.5v9C149.427,53.631,152.785,56.989,156.927,56.989z"/>
		<path style="fill:#fff;" d="M187.103,230.191h-27.509c-4.687,0-8.5-3.813-8.5-8.5v-26.694H192.1c8.547,0,15.5-6.953,15.5-15.5
		V87.488c0-8.391-6.705-15.228-15.036-15.476c0.006-0.175,0.026-0.347,0.026-0.524V15.5c0-8.547-6.953-15.5-15.5-15.5h-66.994
		c-8.547,0-15.5,6.953-15.5,15.5v55.988c0,0.177,0.021,0.348,0.026,0.524c-8.33,0.249-15.034,7.087-15.034,15.476v92.008
		c0,8.547,6.953,15.5,15.5,15.5h41.006v26.694c0,12.958,10.542,23.5,23.5,23.5h27.509c4.687,0,8.5,3.813,8.5,8.5v29
		c0,4.142,3.358,7.5,7.5,7.5s7.5-3.358,7.5-7.5v-29C210.603,240.732,200.061,230.191,187.103,230.191z M109.596,15.5
		c0-0.257,0.243-0.5,0.5-0.5h66.994c0.257,0,0.5,0.243,0.5,0.5v55.988c0,0.257-0.243,0.5-0.5,0.5h-66.994
		c-0.257,0-0.5-0.243-0.5-0.5V15.5z M94.588,179.496V87.488c0-0.257,0.243-0.5,0.5-0.5h15.008h66.994h15.01
		c0.257,0,0.5,0.243,0.5,0.5v92.008c0,0.257-0.243,0.5-0.5,0.5H95.088C94.831,179.996,94.588,179.753,94.588,179.496z"/>
</g>
<g>
</g>
<g>
</g>
<g>
</g>
<g>
</g>
<g>
</g>
<g>
</g>
<g>
</g>
<g>
</g>
<g>
</g>
<g>
</g>
<g>
</g>
<g>
</g>
<g>
</g>
<g>
</g>
<g>
</g>
</svg>
